<?xml version="1.0" encoding="UTF-8"?>
<!DOCTYPE svg PUBLIC "-//W3C//DTD SVG 1.1//EN" "http://www.w3.org/Graphics/SVG/1.1/DTD/svg11.dtd">
<svg xmlns="http://www.w3.org/2000/svg" version="1.1" width="1080px" height="1080px" style="shape-rendering:geometricPrecision; text-rendering:geometricPrecision; image-rendering:optimizeQuality; fill-rule:evenodd; clip-rule:evenodd" xmlns:xlink="http://www.w3.org/1999/xlink">
<g><path style="opacity:0.868" fill="#7dd070" d="M 457.5,278.5 C 470.599,278.038 483.599,278.538 496.5,280C 498.007,281.473 498.674,283.307 498.5,285.5C 498.511,296.414 498.344,307.414 498,318.5C 496.491,320.881 494.325,321.881 491.5,321.5C 485.712,321.618 480.045,321.285 474.5,320.5C 472.556,321.189 470.556,321.689 468.5,322C 449.691,335.975 431.025,350.141 412.5,364.5C 410.616,378.085 408.616,391.585 406.5,405C 405.5,405.5 404.5,406 403.5,406.5C 397.799,405.718 392.132,404.718 386.5,403.5C 385.914,403.709 385.414,404.043 385,404.5C 373.81,402.846 362.644,401.013 351.5,399C 350.919,398.107 350.585,397.107 350.5,396C 352.454,378.513 354.621,361.346 357,344.5C 358.738,343.873 360.571,343.54 362.5,343.5C 372.845,344.607 383.178,345.441 393.5,346C 413.91,330.379 434.41,314.879 455,299.5C 455.333,293.5 455.667,287.5 456,281.5C 456.513,280.473 457.013,279.473 457.5,278.5 Z"/></g>
<g><path style="opacity:0.878" fill="#7dd070" d="M 579.5,284.5 C 586.716,284.683 593.716,284.683 600.5,284.5C 602.33,284.58 603.663,285.413 604.5,287C 605.152,302.709 605.819,318.376 606.5,334C 606.489,337.317 606.489,340.65 606.5,344C 606.138,345.225 605.638,346.391 605,347.5C 602.667,348.167 600.333,348.833 598,349.5C 592.137,349.272 585.803,348.938 579,348.5C 567.2,349.303 555.367,349.803 543.5,350C 528.369,362.795 513.536,375.962 499,389.5C 498.667,395.167 498.333,400.833 498,406.5C 497.167,407.333 496.333,408.167 495.5,409C 484.095,409.398 472.595,409.564 461,409.5C 459.018,409.01 457.351,408.01 456,406.5C 455.333,393.833 455.333,381.167 456,368.5C 456.5,368 457,367.5 457.5,367C 467.167,366.667 476.833,366.333 486.5,366C 504.368,349.131 522.534,332.631 541,316.5C 541.168,306.483 541.668,296.483 542.5,286.5C 554.961,285.852 567.295,285.185 579.5,284.5 Z"/></g>
<g><path style="opacity:0.913" fill="#7dd170" d="M 673.5,312.5 C 674.552,312.351 675.552,312.517 676.5,313C 689.022,326.047 702.022,338.381 715.5,350C 716.769,352.139 716.769,354.305 715.5,356.5C 708.486,364.181 701.153,371.514 693.5,378.5C 688.453,384.54 683.119,390.373 677.5,396C 676.207,396.49 674.873,396.657 673.5,396.5C 673.719,395.325 673.386,394.325 672.5,393.5C 658.66,381.493 645.66,368.66 633.5,355C 635.674,351.502 638.174,348.335 641,345.5C 651.981,334.685 662.814,323.685 673.5,312.5 Z"/></g>
<g><path style="opacity:0.926" fill="#7dd070" d="M 577.5,371.5 C 583.298,377.737 588.131,384.737 592,392.5C 595.483,397.646 599.317,402.479 603.5,407C 634.467,413.658 665.467,420.158 696.5,426.5C 699.028,426.237 701.361,425.404 703.5,424C 720.382,414.061 737.382,404.394 754.5,395C 755.833,394.333 757.167,394.333 758.5,395C 771.492,417.467 784.659,439.967 798,462.5C 798.978,465.669 798.478,468.503 796.5,471C 773.855,483.632 751.188,496.298 728.5,509C 727.167,509.667 725.833,509.667 724.5,509C 713.182,490.037 701.849,471.037 690.5,452C 658.544,445.543 626.711,438.709 595,431.5C 584.104,438.701 573.271,446.034 562.5,453.5C 551.063,438.233 540.23,422.567 530,406.5C 529.51,405.207 529.343,403.873 529.5,402.5C 546.015,392.989 562.015,382.655 577.5,371.5 Z"/></g>
<g><path style="opacity:0.812" fill="#7dd170" d="M 273.5,377.5 C 285.287,377.57 296.953,377.57 308.5,377.5C 312.367,378.135 316.2,378.801 320,379.5C 320.309,380.766 320.809,381.933 321.5,383C 320.676,396.425 320.176,409.925 320,423.5C 319.751,424.624 319.251,425.624 318.5,426.5C 309.926,426.729 301.592,427.063 293.5,427.5C 286.167,426.833 278.833,426.167 271.5,425.5C 270.818,414.76 270.485,404.26 270.5,394C 270.818,388.239 271.818,382.739 273.5,377.5 Z"/></g>
<g><path style="opacity:0.88" fill="#7dd070" d="M 371.5,426.5 C 373.792,426.244 375.959,426.577 378,427.5C 385.32,442.27 393.487,456.603 402.5,470.5C 404.251,472.972 405.085,475.639 405,478.5C 392.471,486.429 379.804,494.096 367,501.5C 356.628,522.411 346.128,543.244 335.5,564C 340.191,571.759 344.691,579.592 349,587.5C 349.667,589.5 349.667,591.5 349,593.5C 335.407,601.727 321.574,609.561 307.5,617C 305.5,617.667 303.5,617.667 301.5,617C 292.507,602.506 284.174,587.673 276.5,572.5C 277.637,569.53 279.637,567.364 282.5,566C 292.983,560.011 303.483,554.178 314,548.5C 323.333,529.833 332.667,511.167 342,492.5C 342.667,491.167 342.667,489.833 342,488.5C 335.156,477.8 329.156,466.8 324,455.5C 338.103,447.141 352.269,438.974 366.5,431C 368.398,429.583 370.064,428.083 371.5,426.5 Z"/></g>
<g><path style="opacity:0.748" fill="#7dd170" d="M 447.5,428.5 C 455.241,429.352 462.908,429.352 470.5,428.5C 471.914,429.624 473.414,430.624 475,431.5C 475.667,444.167 475.667,456.833 475,469.5C 474.612,470.428 473.945,471.095 473,471.5C 462.015,471.836 450.681,472.17 439,472.5C 437.559,471.74 436.059,471.074 434.5,470.5C 433.809,465.617 433.143,460.784 432.5,456C 433.317,447.912 433.817,439.745 434,431.5C 434.5,431 435,430.5 435.5,430C 439.688,429.824 443.688,429.324 447.5,428.5 Z"/></g>
<g><path style="opacity:0.741" fill="#7dd170" d="M 233.5,436.5 C 245.838,436.333 258.171,436.5 270.5,437C 271.416,437.374 272.25,437.874 273,438.5C 273.667,451.5 273.667,464.5 273,477.5C 272.5,478 272,478.5 271.5,479C 259.909,479.365 248.242,479.532 236.5,479.5C 234.893,479.363 233.559,478.696 232.5,477.5C 231.353,464.546 231.186,451.546 232,438.5C 232.717,437.956 233.217,437.289 233.5,436.5 Z"/></g>
<g><path style="opacity:0.911" fill="#7dd070" d="M 624.5,488.5 C 627.119,488.232 629.619,488.565 632,489.5C 642.415,507.845 652.915,526.012 663.5,544C 696.428,552.94 729.262,562.106 762,571.5C 773.272,565.116 784.438,558.616 795.5,552C 797.167,551.333 798.833,551.333 800.5,552C 809.225,567.29 818.058,582.457 827,597.5C 827.667,599.5 827.667,601.5 827,603.5C 811.784,612.193 796.617,621.027 781.5,630C 779.833,630.667 778.167,630.667 776.5,630C 769.807,618.964 763.14,607.964 756.5,597C 723.961,587.907 691.461,578.741 659,569.5C 640.733,580.048 622.566,590.715 604.5,601.5C 602.265,602.752 599.931,603.252 597.5,603C 584.959,582.696 572.793,562.196 561,541.5C 558.959,538.081 557.459,534.414 556.5,530.5C 556.529,528.971 557.196,527.804 558.5,527C 581.037,514.905 603.037,502.072 624.5,488.5 Z"/></g>
<g><path style="opacity:0.86" fill="#7dd170" d="M 504.5,489.5 C 511.234,490.099 517.901,490.099 524.5,489.5C 526.059,490.074 527.559,490.74 529,491.5C 529.2,495.753 529.7,499.92 530.5,504C 530.256,519.617 529.923,535.784 529.5,552.5C 527.39,553.891 525.057,554.558 522.5,554.5C 504.927,554.276 486.927,554.11 468.5,554C 466.295,550.07 465.962,546.237 467.5,542.5C 466.833,531.167 466.167,519.833 465.5,508.5C 466.498,504.512 466.498,500.346 465.5,496C 466.09,494.491 466.756,492.991 467.5,491.5C 479.961,490.852 492.295,490.185 504.5,489.5 Z"/></g>
<g><path style="opacity:0.786" fill="#7dd170" d="M 255.5,495.5 C 268.883,495.185 282.216,495.518 295.5,496.5C 296.357,497.736 297.023,499.069 297.5,500.5C 296.852,512.802 296.185,525.135 295.5,537.5C 282.988,538.284 270.654,538.617 258.5,538.5C 257.069,538.023 255.736,537.357 254.5,536.5C 253.895,527.423 253.561,518.589 253.5,510C 254.248,505.204 254.915,500.371 255.5,495.5 Z"/></g>
<g><path style="opacity:0.719" fill="#7dd170" d="M 823.5,496.5 C 826.602,496.154 829.435,496.821 832,498.5C 838.769,509.708 845.269,521.041 851.5,532.5C 851.144,535.688 849.477,537.855 846.5,539C 836.809,543.841 827.476,549.175 818.5,555C 816.457,555.93 814.624,556.43 813,556.5C 809.379,552.09 805.879,547.59 802.5,543C 802.833,542.667 803.167,542.333 803.5,542C 799.274,535.744 795.441,529.244 792,522.5C 791.333,520.5 791.333,518.5 792,516.5C 801.616,510.199 811.449,504.366 821.5,499C 822.381,498.292 823.047,497.458 823.5,496.5 Z"/></g>
<g><path style="opacity:0.91" fill="#7dd070" d="M 425.5,545.5 C 427.827,545.247 429.827,545.914 431.5,547.5C 440.523,562.404 449.023,577.737 457,593.5C 459.15,596.978 461.65,600.145 464.5,603C 497.426,611.273 530.259,619.773 563,628.5C 573.816,621.349 584.983,615.183 596.5,610C 598.359,611.558 599.859,613.391 601,615.5C 608.494,629.826 616.494,643.826 625,657.5C 625.667,658.833 625.667,660.167 625,661.5C 609.615,670.779 594.115,679.946 578.5,689C 576.833,689.667 575.167,689.667 573.5,689C 566.657,676.304 559.324,663.971 551.5,652C 519.617,643.904 487.784,635.738 456,627.5C 437.112,639.278 417.778,650.278 398,660.5C 397.127,660.265 396.293,659.931 395.5,659.5C 384.861,640.534 373.861,621.868 362.5,603.5C 360.641,599.617 358.641,595.784 356.5,592C 355.541,589.88 355.374,587.713 356,585.5C 379.271,572.406 402.438,559.072 425.5,545.5 Z"/></g>
<g><path style="opacity:0.872" fill="#7dd070" d="M 669.5,609.5 C 687.981,609.874 707.314,610.541 727.5,611.5C 728.476,615.763 728.809,619.93 728.5,624C 727.606,639.672 726.606,655.339 725.5,671C 707.626,671.302 689.626,671.302 671.5,671C 655.667,684.167 639.833,697.333 624,710.5C 624.477,718.111 624.643,725.611 624.5,733C 624.357,735.151 623.357,736.818 621.5,738C 607.833,738.667 594.167,738.667 580.5,738C 579.333,737.5 578.5,736.667 578,735.5C 577.797,731.579 577.297,727.745 576.5,724C 577.063,713.838 577.896,703.671 579,693.5C 580.907,692.07 583.074,691.404 585.5,691.5C 590.743,691.461 596.076,691.794 601.5,692.5C 603.115,691.846 604.782,691.346 606.5,691C 627.005,673.992 647.338,656.825 667.5,639.5C 667.583,637.264 667.25,634.93 666.5,632.5C 666.948,624.715 667.948,617.048 669.5,609.5 Z"/></g>
<g><path style="opacity:0.732" fill="#7dd170" d="M 659.5,709.5 C 671.595,710.04 683.595,710.04 695.5,709.5C 697.697,709.848 699.53,710.848 701,712.5C 701.667,726.5 701.667,740.5 701,754.5C 700.5,755 700,755.5 699.5,756C 685.833,756.667 672.167,756.667 658.5,756C 656.292,755.064 654.958,753.398 654.5,751C 655.481,742.51 655.481,733.843 654.5,725C 655.164,720.856 655.664,716.689 656,712.5C 657.145,711.364 658.312,710.364 659.5,709.5 Z"/></g>
<g><path style="opacity:0.721" fill="#7dd170" d="M 599.5,767.5 C 611.742,768.122 623.742,768.122 635.5,767.5C 640.392,768.402 642.725,771.402 642.5,776.5C 642.544,788.021 642.377,799.687 642,811.5C 641.167,812.333 640.333,813.167 639.5,814C 625.833,814.667 612.167,814.667 598.5,814C 597.692,813.692 597.025,813.192 596.5,812.5C 595.594,799.308 595.427,785.975 596,772.5C 596.257,770.093 597.424,768.427 599.5,767.5 Z"/></g>
</svg>
