<?xml version="1.0" encoding="UTF-8"?>
<svg version="1.1" xmlns="http://www.w3.org/2000/svg" width="1080" height="1080">
<path d="M0 0 C1.21945312 -0.00386719 2.43890625 -0.00773437 3.6953125 -0.01171875 C10.21588214 -0.0046771 16.5375515 0.24755548 23 1.125 C23 2.115 23 3.105 23 4.125 C23.68707031 4.16238281 24.37414062 4.19976562 25.08203125 4.23828125 C25.98308594 4.30402344 26.88414062 4.36976563 27.8125 4.4375 C28.70582031 4.49550781 29.59914063 4.55351562 30.51953125 4.61328125 C33.37900455 5.20318834 34.05638185 6.05180731 36 8.125 C39.61023099 8.85541853 39.61023099 8.85541853 43 9.125 C43.33 10.445 43.66 11.765 44 13.125 C45.65 13.455 47.3 13.785 49 14.125 C49 15.115 49 16.105 49 17.125 C50.11375 17.2075 51.2275 17.29 52.375 17.375 C53.57125 17.6225 54.7675 17.87 56 18.125 C57.1875 19.9375 57.1875 19.9375 58 22.125 C58.70125 22.805625 59.4025 23.48625 60.125 24.1875 C62 26.125 62 26.125 62 29.125 C62.99 29.125 63.98 29.125 65 29.125 C65.33 30.775 65.66 32.425 66 34.125 C66.99 34.125 67.98 34.125 69 34.125 C69.33 35.775 69.66 37.425 70 39.125 C70.99 39.125 71.98 39.125 73 39.125 C73.33 41.765 73.66 44.405 74 47.125 C74.99 47.125 75.98 47.125 77 47.125 C77.33 50.095 77.66 53.065 78 56.125 C78.99 56.125 79.98 56.125 81 56.125 C81.4021875 57.8265625 81.4021875 57.8265625 81.8125 59.5625 C82.204375 60.738125 82.59625 61.91375 83 63.125 C83.99 63.455 84.98 63.785 86 64.125 C86.33 65.115 86.66 66.105 87 67.125 C97.72149814 68.05963473 108.1941211 68.11402709 118.9375 67.6875 C121.80064811 67.58068792 124.66393419 67.47845085 127.52734375 67.37890625 C128.22185638 67.35430328 128.91636902 67.32970032 129.63192749 67.30435181 C137.08793859 67.05786405 144.54092336 67.07413838 152 67.125 C152.33 66.135 152.66 65.145 153 64.125 C154.32 64.125 155.64 64.125 157 64.125 C156.938125 62.3925 156.938125 62.3925 156.875 60.625 C156.85912567 56.18018699 157.78206895 52.38775869 159 48.125 C159.66 48.125 160.32 48.125 161 48.125 C161.12117188 47.55910156 161.24234375 46.99320312 161.3671875 46.41015625 C161.53476562 45.67667969 161.70234375 44.94320312 161.875 44.1875 C162.11863281 43.09115234 162.11863281 43.09115234 162.3671875 41.97265625 C163 40.125 163 40.125 165 39.125 C165.72159424 37.48136866 166.39351421 35.81449614 167 34.125 C167.99 34.125 168.98 34.125 170 34.125 C170 32.805 170 31.485 170 30.125 C171.32 30.125 172.64 30.125 174 30.125 C174 28.805 174 27.485 174 26.125 C174.639375 26.021875 175.27875 25.91875 175.9375 25.8125 C176.618125 25.585625 177.29875 25.35875 178 25.125 C178.33 24.135 178.66 23.145 179 22.125 C181.31 21.795 183.62 21.465 186 21.125 C186 20.135 186 19.145 186 18.125 C189.3 17.795 192.6 17.465 196 17.125 C196 16.135 196 15.145 196 14.125 C201.23425152 13.25607287 206.26126559 12.97172675 211.5625 13 C212.29146484 12.99613281 213.02042969 12.99226563 213.77148438 12.98828125 C217.95650092 12.99581503 221.8776045 13.30442838 226 14.125 C226 15.115 226 16.105 226 17.125 C227.0725 17.104375 228.145 17.08375 229.25 17.0625 C232.14790424 17.1107984 234.28612141 17.25655885 237 18.125 C237 19.115 237 20.105 237 21.125 C240.96 21.62 240.96 21.62 245 22.125 C245.33 23.115 245.66 24.105 246 25.125 C248.00016466 26.33382096 248.00016466 26.33382096 250 27.125 C250 28.115 250 29.105 250 30.125 C250.639375 30.228125 251.27875 30.33125 251.9375 30.4375 C252.618125 30.664375 253.29875 30.89125 254 31.125 C254.33 32.115 254.66 33.105 255 34.125 C255.99 34.455 256.98 34.785 258 35.125 C258.33 37.765 258.66 40.405 259 43.125 C259.99 43.125 260.98 43.125 262 43.125 C262.33 46.095 262.66 49.065 263 52.125 C263.99 52.125 264.98 52.125 266 52.125 C266.95325167 55.34021279 267.12884944 58.24247368 267.1328125 61.58984375 C267.13410156 62.63720703 267.13539063 63.68457031 267.13671875 64.76367188 C267.13285156 65.85228516 267.12898438 66.94089844 267.125 68.0625 C267.12886719 69.14724609 267.13273437 70.23199219 267.13671875 71.34960938 C267.13478516 72.92258789 267.13478516 72.92258789 267.1328125 74.52734375 C267.13168457 75.48116943 267.13055664 76.43499512 267.12939453 77.41772461 C267.00201137 80.08291692 266.59400046 82.52750148 266 85.125 C265.01 85.125 264.02 85.125 263 85.125 C263 86.115 263 87.105 263 88.125 C263.99 88.125 264.98 88.125 266 88.125 C266.33 89.775 266.66 91.425 267 93.125 C270.96 93.62 270.96 93.62 275 94.125 C275 95.115 275 96.105 275 97.125 C276.65 97.455 278.3 97.785 280 98.125 C280 98.785 280 99.445 280 100.125 C282.64 100.785 285.28 101.445 288 102.125 C288 103.115 288 104.105 288 105.125 C291.96 105.62 291.96 105.62 296 106.125 C296.33 107.115 296.66 108.105 297 109.125 C299.31 109.455 301.62 109.785 304 110.125 C304.33 111.115 304.66 112.105 305 113.125 C307.32206525 113.82991267 309.65593068 114.49712429 312 115.125 C312.33 115.785 312.66 116.445 313 117.125 C314.7325 117.62 314.7325 117.62 316.5 118.125 C318.2325 118.62 318.2325 118.62 320 119.125 C320.33 119.785 320.66 120.445 321 121.125 C322.64363134 121.84659424 324.31050386 122.51851421 326 123.125 C326 124.115 326 125.105 326 126.125 C329.96 126.62 329.96 126.62 334 127.125 C334 128.115 334 129.105 334 130.125 C336.64 130.455 339.28 130.785 342 131.125 C342.33 132.115 342.66 133.105 343 134.125 C345.32206525 134.82991267 347.65593068 135.49712429 350 136.125 C350.33 136.785 350.66 137.445 351 138.125 C353.02463255 138.77713292 353.02463255 138.77713292 355 139.125 C355 138.135 355 137.145 355 136.125 C356.11375 135.856875 357.2275 135.58875 358.375 135.3125 C362.21840951 134.46690981 362.21840951 134.46690981 364 131.125 C366.06298828 130.78442383 366.06298828 130.78442383 368.5703125 130.83203125 C369.46621094 130.84169922 370.36210938 130.85136719 371.28515625 130.86132812 C372.22230469 130.88646484 373.15945313 130.91160156 374.125 130.9375 C375.06988281 130.95103516 376.01476562 130.96457031 376.98828125 130.97851562 C379.32608779 131.01393694 381.66276237 131.06332729 384 131.125 C384.33 132.115 384.66 133.105 385 134.125 C387.31 134.455 389.62 134.785 392 135.125 C392.33 136.445 392.66 137.765 393 139.125 C394.32 139.455 395.64 139.785 397 140.125 C397 141.445 397 142.765 397 144.125 C397.99 144.125 398.98 144.125 400 144.125 C402.86172432 153.24674629 402.74186215 162.76249095 401 172.125 C399.68 172.455 398.36 172.785 397 173.125 C396.67 174.775 396.34 176.425 396 178.125 C395.34 178.125 394.68 178.125 394 178.125 C393.34 179.445 392.68 180.765 392 182.125 C391.01 182.125 390.02 182.125 389 182.125 C388.67 183.115 388.34 184.105 388 185.125 C385.30228218 186.14302737 382.7519983 186.24433332 379.890625 186.22265625 C379.13652344 186.21943359 378.38242187 186.21621094 377.60546875 186.21289062 C376.82816406 186.20451172 376.05085937 186.19613281 375.25 186.1875 C374.45722656 186.18298828 373.66445313 186.17847656 372.84765625 186.17382812 C370.89840492 186.16208565 368.94919262 186.14415146 367 186.125 C367 187.115 367 188.105 367 189.125 C366.01 189.455 365.02 189.785 364 190.125 C362.78130071 192.62947516 362.78130071 192.62947516 362 195.125 C361.34 195.125 360.68 195.125 360 195.125 C359.67 197.435 359.34 199.745 359 202.125 C358.01 202.455 357.02 202.785 356 203.125 C355.27113604 204.96962187 355.27113604 204.96962187 354.9375 207.125 C354.52734375 209.3125 354.52734375 209.3125 354 211.125 C353.34 211.455 352.68 211.785 352 212.125 C352 214.435 352 216.745 352 219.125 C352.66 219.455 353.32 219.785 354 220.125 C354.309375 221.28 354.61875 222.435 354.9375 223.625 C355.288125 224.78 355.63875 225.935 356 227.125 C356.99 227.455 357.98 227.785 359 228.125 C359.33 229.115 359.66 230.105 360 231.125 C360.99 231.455 361.98 231.785 363 232.125 C363.33333333 233.45833333 363.66666667 234.79166667 364 236.125 C364.99 236.455 365.98 236.785 367 237.125 C367.33 239.435 367.66 241.745 368 244.125 C369.32 244.455 370.64 244.785 372 245.125 C372 247.435 372 249.745 372 252.125 C373.32 252.455 374.64 252.785 376 253.125 C376.185625 254.8265625 376.185625 254.8265625 376.375 256.5625 C376.58125 257.738125 376.7875 258.91375 377 260.125 C377.66 260.455 378.32 260.785 379 261.125 C380.7463182 268.36898659 381.25164681 275.701419 381 283.125 C381.66 283.125 382.32 283.125 383 283.125 C383 286.755 383 290.385 383 294.125 C382.34 294.125 381.68 294.125 381 294.125 C381.061875 295.98125 381.061875 295.98125 381.125 297.875 C381.125 303.6793521 380.47796837 309.50507089 379 315.125 C378.01 315.62 378.01 315.62 377 316.125 C376.53476937 318.02033342 376.53476937 318.02033342 376.375 320.1875 C376.25125 321.486875 376.1275 322.78625 376 324.125 C375.01 324.455 374.02 324.785 373 325.125 C372.19787372 326.99887216 372.19787372 326.99887216 371.8125 329.1875 C371.65394531 329.92097656 371.49539063 330.65445312 371.33203125 331.41015625 C371.22246094 331.97605469 371.11289062 332.54195312 371 333.125 C370.01 333.125 369.02 333.125 368 333.125 C367.67 335.435 367.34 337.745 367 340.125 C366.01 340.455 365.02 340.785 364 341.125 C362.79117904 343.12516466 362.79117904 343.12516466 362 345.125 C361.01 345.125 360.02 345.125 359 345.125 C359 346.445 359 347.765 359 349.125 C357.68 349.125 356.36 349.125 355 349.125 C354.8453125 350.0840625 354.8453125 350.0840625 354.6875 351.0625 C354.460625 351.743125 354.23375 352.42375 354 353.125 C353.01 353.455 352.02 353.785 351 354.125 C350.67 355.115 350.34 356.105 350 357.125 C347.66666667 357.79166667 345.33333333 358.45833333 343 359.125 C342.67 360.115 342.34 361.105 342 362.125 C339.36 362.455 336.72 362.785 334 363.125 C334 364.115 334 365.105 334 366.125 C331.03 366.455 328.06 366.785 325 367.125 C325 368.115 325 369.105 325 370.125 C317.96094956 371.06354006 311.09727428 371.23308032 304 371.125 C304 371.785 304 372.445 304 373.125 C300.32589215 374.30071451 296.83070817 374.19866746 293 374.125 C292.67 373.135 292.34 372.145 292 371.125 C291.2265625 371.13660156 290.453125 371.14820313 289.65625 371.16015625 C283.66063636 371.21209845 277.92697017 371.03684156 272 370.125 C271.67 369.135 271.34 368.145 271 367.125 C268.36 366.795 265.72 366.465 263 366.125 C262.67 365.135 262.34 364.145 262 363.125 C254.02509872 361.79584979 246.05813281 362.03698641 238 362.125 C237.896875 362.764375 237.79375 363.40375 237.6875 364.0625 C237.460625 364.743125 237.23375 365.42375 237 366.125 C236.01 366.455 235.02 366.785 234 367.125 C232.79117904 369.12516466 232.79117904 369.12516466 232 371.125 C231.01 371.125 230.02 371.125 229 371.125 C229 372.445 229 373.765 229 375.125 C227.68 375.125 226.36 375.125 225 375.125 C225 376.445 225 377.765 225 379.125 C224.01 379.455 223.02 379.785 222 380.125 C221.67 381.115 221.34 382.105 221 383.125 C220.67 384.115 220.34 385.105 220 386.125 C219.01 386.455 218.02 386.785 217 387.125 C216.67 388.115 216.34 389.105 216 390.125 C215.01 390.455 214.02 390.785 213 391.125 C212.67 391.785 212.34 392.445 212 393.125 C211.67 393.785 211.34 394.445 211 395.125 C210.01 395.455 209.02 395.785 208 396.125 C207.67 397.115 207.34 398.105 207 399.125 C206.01 399.125 205.02 399.125 204 399.125 C203.67 400.775 203.34 402.425 203 404.125 C202.01 404.125 201.02 404.125 200 404.125 C200.33 406.435 200.66 408.745 201 411.125 C201.99 411.455 202.98 411.785 204 412.125 C204 413.775 204 415.425 204 417.125 C204.99 417.125 205.98 417.125 207 417.125 C207.66 421.085 208.32 425.045 209 429.125 C209.66 429.125 210.32 429.125 211 429.125 C211.79529242 431.93300614 212.1282074 434.43229759 212.1328125 437.34765625 C212.13410156 438.13333984 212.13539063 438.91902344 212.13671875 439.72851562 C212.13285156 440.53998047 212.12898438 441.35144531 212.125 442.1875 C212.12886719 443.00283203 212.13273437 443.81816406 212.13671875 444.65820312 C212.13478516 445.83479492 212.13478516 445.83479492 212.1328125 447.03515625 C212.13168457 447.74808838 212.13055664 448.46102051 212.12939453 449.19555664 C212 451.125 212 451.125 211 454.125 C210.34 454.125 209.68 454.125 209 454.125 C208.67 458.085 208.34 462.045 208 466.125 C206.68 466.455 205.36 466.785 204 467.125 C203.67 469.435 203.34 471.745 203 474.125 C202.01 474.125 201.02 474.125 200 474.125 C199.67 475.775 199.34 477.425 199 479.125 C198.01 479.455 197.02 479.785 196 480.125 C194.79117904 482.12516466 194.79117904 482.12516466 194 484.125 C193.01 484.125 192.02 484.125 191 484.125 C191 485.115 191 486.105 191 487.125 C188.09399739 488.38164978 186.20395416 489.125 183 489.125 C183 490.115 183 491.105 183 492.125 C180.36 492.455 177.72 492.785 175 493.125 C174.67 494.115 174.34 495.105 174 496.125 C161.72520602 497.878542 149.29992722 497.42953774 137 496.125 C137 495.135 137 494.145 137 493.125 C134.98177083 492.96223958 132.96354167 492.79947917 130.9453125 492.63671875 C129 492.125 129 492.125 127 489.125 C126.01 488.795 125.02 488.465 124 488.125 C121 487.125 121 487.125 119 484.125 C118.01 483.795 117.02 483.465 116 483.125 C115.67 482.135 115.34 481.145 115 480.125 C114.01 479.795 113.02 479.465 112 479.125 C111.33333333 476.79166667 110.66666667 474.45833333 110 472.125 C109.01 471.795 108.02 471.465 107 471.125 C106.67 468.485 106.34 465.845 106 463.125 C105.01 462.795 104.02 462.465 103 462.125 C102.67 457.835 102.34 453.545 102 449.125 C101.34 449.125 100.68 449.125 100 449.125 C100 444.175 100 439.225 100 434.125 C100.66 434.125 101.32 434.125 102 434.125 C102.33 429.835 102.66 425.545 103 421.125 C103.99 420.795 104.98 420.465 106 420.125 C106.33 417.815 106.66 415.505 107 413.125 C108.32 412.795 109.64 412.465 111 412.125 C111.33 410.475 111.66 408.825 112 407.125 C112.99 407.125 113.98 407.125 115 407.125 C115.33 405.805 115.66 404.485 116 403.125 C116.99 403.125 117.98 403.125 119 403.125 C119 400.815 119 398.505 119 396.125 C118.01 395.795 117.02 395.465 116 395.125 C115.67 392.485 115.34 389.845 115 387.125 C114.01 387.125 113.02 387.125 112 387.125 C110.74335022 384.21899739 110 382.32895416 110 379.125 C109.01 379.125 108.02 379.125 107 379.125 C106.896875 378.485625 106.79375 377.84625 106.6875 377.1875 C106.3471875 376.1665625 106.3471875 376.1665625 106 375.125 C105.01 374.795 104.02 374.465 103 374.125 C102.67 371.815 102.34 369.505 102 367.125 C101.01 366.795 100.02 366.465 99 366.125 C98.66666667 364.79166667 98.33333333 363.45833333 98 362.125 C97.01 361.795 96.02 361.465 95 361.125 C94.67 360.135 94.34 359.145 94 358.125 C91.98491642 357.39176204 91.98491642 357.39176204 90 357.125 C90 356.135 90 355.145 90 354.125 C84.39 354.125 78.78 354.125 73 354.125 C73 355.115 73 356.105 73 357.125 C65.98344843 358.20843811 59.09119097 358.2741197 52 358.25 C50.86304688 358.25386719 49.72609375 358.25773437 48.5546875 358.26171875 C42.60741846 358.25481937 36.87940838 358.03284982 31 357.125 C31 356.135 31 355.145 31 354.125 C29.4221875 354.1559375 29.4221875 354.1559375 27.8125 354.1875 C24.67295096 354.13603198 22.03116604 353.85982813 19 353.125 C19 352.135 19 351.145 19 350.125 C16.36 349.795 13.72 349.465 11 349.125 C10.67 348.135 10.34 347.145 10 346.125 C9.236875 346.021875 8.47375 345.91875 7.6875 345.8125 C4.72988846 345.0559017 4.00769001 344.30727175 2 342.125 C-0.09989652 340.94925289 -0.09989652 340.94925289 -2 340.125 C-2 339.135 -2 338.145 -2 337.125 C-3.65 336.795 -5.3 336.465 -7 336.125 C-7 335.135 -7 334.145 -7 333.125 C-8.32 332.795 -9.64 332.465 -11 332.125 C-11 330.805 -11 329.485 -11 328.125 C-12.32 328.125 -13.64 328.125 -15 328.125 C-15 326.805 -15 325.485 -15 324.125 C-16.32 323.795 -17.64 323.465 -19 323.125 C-19.33 320.815 -19.66 318.505 -20 316.125 C-20.99 316.125 -21.98 316.125 -23 316.125 C-23.33 313.485 -23.66 310.845 -24 308.125 C-24.99 308.125 -25.98 308.125 -27 308.125 C-27.33 304.825 -27.66 301.525 -28 298.125 C-28.99 298.125 -29.98 298.125 -31 298.125 C-31.33 292.845 -31.66 287.565 -32 282.125 C-32.99 282.125 -33.98 282.125 -35 282.125 C-35.103125 281.485625 -35.20625 280.84625 -35.3125 280.1875 C-35.6528125 279.1665625 -35.6528125 279.1665625 -36 278.125 C-36.99 277.795 -37.98 277.465 -39 277.125 C-39 276.135 -39 275.145 -39 274.125 C-42.3 273.795 -45.6 273.465 -49 273.125 C-49 272.135 -49 271.145 -49 270.125 C-50.13091064 270.13285522 -50.13091064 270.13285522 -51.28466797 270.14086914 C-65.89352901 270.22871356 -80.42612612 270.20454621 -95 269.125 C-95 268.465 -95 267.805 -95 267.125 C-97.31 266.795 -99.62 266.465 -102 266.125 C-102.33 267.445 -102.66 268.765 -103 270.125 C-103.99 270.125 -104.98 270.125 -106 270.125 C-106.18175781 271.29869141 -106.18175781 271.29869141 -106.3671875 272.49609375 C-106.53476562 273.50800781 -106.70234375 274.51992188 -106.875 275.5625 C-107.03742188 276.57183594 -107.19984375 277.58117187 -107.3671875 278.62109375 C-107.57601562 279.44738281 -107.78484375 280.27367187 -108 281.125 C-108.66 281.455 -109.32 281.785 -110 282.125 C-110.72159424 283.76863134 -111.39351421 285.43550386 -112 287.125 C-112.99 287.125 -113.98 287.125 -115 287.125 C-115.33 288.445 -115.66 289.765 -116 291.125 C-116.99 291.125 -117.98 291.125 -119 291.125 C-119 292.445 -119 293.765 -119 295.125 C-120.32 295.125 -121.64 295.125 -123 295.125 C-123.103125 295.764375 -123.20625 296.40375 -123.3125 297.0625 C-123.539375 297.743125 -123.76625 298.42375 -124 299.125 C-124.99 299.455 -125.98 299.785 -127 300.125 C-127.33 301.115 -127.66 302.105 -128 303.125 C-130.64 303.455 -133.28 303.785 -136 304.125 C-136 305.115 -136 306.105 -136 307.125 C-140.29 307.455 -144.58 307.785 -149 308.125 C-149.33 309.115 -149.66 310.105 -150 311.125 C-154.95 311.125 -159.9 311.125 -165 311.125 C-165.495 309.64 -165.495 309.64 -166 308.125 C-167.7325 308.186875 -167.7325 308.186875 -169.5 308.25 C-173.97138832 308.25 -177.73584944 307.47157386 -182 306.125 C-182.33 305.465 -182.66 304.805 -183 304.125 C-184.134375 303.815625 -185.26875 303.50625 -186.4375 303.1875 C-190 302.125 -190 302.125 -192 299.125 C-192.99 298.795 -193.98 298.465 -195 298.125 C-195.33 297.135 -195.66 296.145 -196 295.125 C-196.99 294.795 -197.98 294.465 -199 294.125 C-199.495 292.64 -199.495 292.64 -200 291.125 C-200.99 290.795 -201.98 290.465 -203 290.125 C-203.33 287.815 -203.66 285.505 -204 283.125 C-205.32 282.795 -206.64 282.465 -208 282.125 C-208.33 279.485 -208.66 276.845 -209 274.125 C-209.99 273.795 -210.98 273.465 -212 273.125 C-212.87699873 267.10433408 -213.15278373 261.26750637 -213.125 255.1875 C-213.12886719 254.34509766 -213.13273438 253.50269531 -213.13671875 252.63476562 C-213.12813187 247.05758422 -212.70347171 241.65786084 -212 236.125 C-211.01 235.795 -210.02 235.465 -209 235.125 C-208.67 232.815 -208.34 230.505 -208 228.125 C-207.01 227.795 -206.02 227.465 -205 227.125 C-204.30840599 225.27774948 -204.30840599 225.27774948 -204 223.125 C-203.625 220.9375 -203.625 220.9375 -203 219.125 C-202.01 218.795 -201.02 218.465 -200 218.125 C-199.67 217.135 -199.34 216.145 -199 215.125 C-198.01 214.795 -197.02 214.465 -196 214.125 C-195.67 213.135 -195.34 212.145 -195 211.125 C-193.66666667 210.79166667 -192.33333333 210.45833333 -191 210.125 C-190.67 209.135 -190.34 208.145 -190 207.125 C-187.36 206.795 -184.72 206.465 -182 206.125 C-182 205.135 -182 204.145 -182 203.125 C-181.21753906 203.00382813 -180.43507813 202.88265625 -179.62890625 202.7578125 C-178.61699219 202.59023438 -177.60507812 202.42265625 -176.5625 202.25 C-175.55316406 202.08757812 -174.54382813 201.92515625 -173.50390625 201.7578125 C-172.67761719 201.54898438 -171.85132813 201.34015625 -171 201.125 C-170.67 200.465 -170.34 199.805 -170 199.125 C-163.0514958 197.78874919 -156.05129128 198.02825972 -149 198.125 C-148.814375 196.1759375 -148.814375 196.1759375 -148.625 194.1875 C-148.4140625 191.97265625 -148.4140625 191.97265625 -148 190.125 C-147.34 189.795 -146.68 189.465 -146 189.125 C-145.38333662 186.34611592 -145.38333662 186.34611592 -145 183.125 C-144.5625 179.8125 -144.5625 179.8125 -144 177.125 C-143.34 176.795 -142.68 176.465 -142 176.125 C-141.53476937 174.22966658 -141.53476937 174.22966658 -141.375 172.0625 C-141.189375 170.1134375 -141.189375 170.1134375 -141 168.125 C-141.99 168.125 -142.98 168.125 -144 168.125 C-144.33 167.135 -144.66 166.145 -145 165.125 C-145.99 164.795 -146.98 164.465 -148 164.125 C-149.4477922 161.22941559 -150 159.38311062 -150 156.125 C-150.99 156.125 -151.98 156.125 -153 156.125 C-154.42487441 138.06197671 -154.42487441 138.06197671 -153 132.125 C-152.01 131.465 -151.02 130.805 -150 130.125 C-148.80767387 128.07496045 -148.80767387 128.07496045 -148 126.125 C-147.01 126.125 -146.02 126.125 -145 126.125 C-145 124.805 -145 123.485 -145 122.125 C-143.68 122.125 -142.36 122.125 -141 122.125 C-141 121.135 -141 120.145 -141 119.125 C-135.06 118.135 -135.06 118.135 -129 117.125 C-129 116.465 -129 115.805 -129 115.125 C-126.03 115.125 -123.06 115.125 -120 115.125 C-119.67 115.785 -119.34 116.445 -119 117.125 C-116.67843403 117.53229228 -114.3431213 117.86938677 -112 118.125 C-111.67 119.445 -111.34 120.765 -111 122.125 C-104.07 122.125 -97.14 122.125 -90 122.125 C-90 121.135 -90 120.145 -90 119.125 C-89.01 118.795 -88.02 118.465 -87 118.125 C-86.30062468 116.80852881 -85.63270867 115.47477849 -85 114.125 C-84.34 113.795 -83.68 113.465 -83 113.125 C-83 106.525 -83 99.925 -83 93.125 C-83.66 93.125 -84.32 93.125 -85 93.125 C-85 87.515 -85 81.905 -85 76.125 C-84.34 76.125 -83.68 76.125 -83 76.125 C-82.93941406 75.01640625 -82.87882813 73.9078125 -82.81640625 72.765625 C-82.73197049 71.3020718 -82.64732401 69.83853075 -82.5625 68.375 C-82.52318359 67.64539063 -82.48386719 66.91578125 -82.44335938 66.1640625 C-82.03377109 59.23256844 -82.03377109 59.23256844 -81 56.125 C-80.34 55.795 -79.68 55.465 -79 55.125 C-78.31270746 53.00653715 -78.31270746 53.00653715 -77.875 50.5625 C-77.62363281 49.32306641 -77.62363281 49.32306641 -77.3671875 48.05859375 C-77.24601563 47.42050781 -77.12484375 46.78242188 -77 46.125 C-76.01 46.125 -75.02 46.125 -74 46.125 C-73.67 43.815 -73.34 41.505 -73 39.125 C-72.01 39.125 -71.02 39.125 -70 39.125 C-69.67 37.475 -69.34 35.825 -69 34.125 C-68.01 33.795 -67.02 33.465 -66 33.125 C-65.67 31.97 -65.34 30.815 -65 29.625 C-64.67 28.47 -64.34 27.315 -64 26.125 C-63.01 25.795 -62.02 25.465 -61 25.125 C-60.67 24.135 -60.34 23.145 -60 22.125 C-59.01 21.795 -58.02 21.465 -57 21.125 C-56.67 20.135 -56.34 19.145 -56 18.125 C-53.69 17.795 -51.38 17.465 -49 17.125 C-48.67 15.805 -48.34 14.485 -48 13.125 C-46.68 13.125 -45.36 13.125 -44 13.125 C-44 12.135 -44 11.145 -44 10.125 C-43.43410156 10.01542969 -42.86820313 9.90585937 -42.28515625 9.79296875 C-41.55167969 9.63441406 -40.81820312 9.47585938 -40.0625 9.3125 C-39.33160156 9.16167969 -38.60070312 9.01085937 -37.84765625 8.85546875 C-37.23792969 8.61441406 -36.62820313 8.37335938 -36 8.125 C-35.67 7.135 -35.34 6.145 -35 5.125 C-31.37 4.795 -27.74 4.465 -24 4.125 C-23.67 3.135 -23.34 2.145 -23 1.125 C-15.31285819 0.08127169 -7.75114811 -0.02458081 0 0 Z M-6 44.125 C-6 44.785 -6 45.445 -6 46.125 C-6.92232422 46.21587891 -6.92232422 46.21587891 -7.86328125 46.30859375 C-8.67152344 46.39238281 -9.47976563 46.47617187 -10.3125 46.5625 C-11.11300781 46.64371094 -11.91351563 46.72492188 -12.73828125 46.80859375 C-15.16087179 47.07765693 -15.16087179 47.07765693 -18 48.125 C-18.33 48.785 -18.66 49.445 -19 50.125 C-20.64363134 50.84659424 -22.31050386 51.51851421 -24 52.125 C-24 53.115 -24 54.105 -24 55.125 C-25.32 55.455 -26.64 55.785 -28 56.125 C-28 57.115 -28 58.105 -28 59.125 C-29.32 59.455 -30.64 59.785 -32 60.125 C-32 61.445 -32 62.765 -32 64.125 C-32.99 64.125 -33.98 64.125 -35 64.125 C-35.12117187 64.69089844 -35.24234375 65.25679687 -35.3671875 65.83984375 C-35.53476562 66.57332031 -35.70234375 67.30679688 -35.875 68.0625 C-36.03742188 68.79339844 -36.19984375 69.52429688 -36.3671875 70.27734375 C-37 72.125 -37 72.125 -39 73.125 C-39 79.725 -39 86.325 -39 93.125 C-38.34 93.455 -37.68 93.785 -37 94.125 C-36.59270772 96.44656597 -36.25561323 98.7818787 -36 101.125 C-34.68 101.455 -33.36 101.785 -32 102.125 C-31.67 104.435 -31.34 106.745 -31 109.125 C-30.01 109.455 -29.02 109.785 -28 110.125 C-27.33333333 111.45833333 -26.66666667 112.79166667 -26 114.125 C-25.01 114.455 -24.02 114.785 -23 115.125 C-22.67 116.115 -22.34 117.105 -22 118.125 C-20.2984375 118.310625 -20.2984375 118.310625 -18.5625 118.5 C-17.386875 118.70625 -16.21125 118.9125 -15 119.125 C-14.505 120.115 -14.505 120.115 -14 121.125 C-10.99984088 122.12505304 -9.02576244 122.24075585 -5.89453125 122.22265625 C-4.42016602 122.21782227 -4.42016602 122.21782227 -2.91601562 122.21289062 C-1.89185547 122.20451172 -0.86769531 122.19613281 0.1875 122.1875 C1.22326172 122.18298828 2.25902344 122.17847656 3.32617188 122.17382812 C5.88417266 122.1620401 8.44205733 122.14558515 11 122.125 C11 121.135 11 120.145 11 119.125 C15.455 118.63 15.455 118.63 20 118.125 C20 117.135 20 116.145 20 115.125 C20.94875 115.0425 21.8975 114.96 22.875 114.875 C23.90625 114.6275 24.9375 114.38 26 114.125 C27.22527948 112.17478917 27.22527948 112.17478917 28 110.125 C28.99 109.795 29.98 109.465 31 109.125 C31.33 106.815 31.66 104.505 32 102.125 C33.32 101.795 34.64 101.465 36 101.125 C36.185625 99.1759375 36.185625 99.1759375 36.375 97.1875 C36.5859375 94.97265625 36.5859375 94.97265625 37 93.125 C37.66 92.795 38.32 92.465 39 92.125 C39 86.845 39 81.565 39 76.125 C38.34 76.125 37.68 76.125 37 76.125 C36.01 70.185 36.01 70.185 35 64.125 C34.01 64.125 33.02 64.125 32 64.125 C31.67 62.475 31.34 60.825 31 59.125 C30.01 59.125 29.02 59.125 28 59.125 C27.896875 58.485625 27.79375 57.84625 27.6875 57.1875 C27.460625 56.506875 27.23375 55.82625 27 55.125 C26.01 54.795 25.02 54.465 24 54.125 C23.505 52.64 23.505 52.64 23 51.125 C21.67696283 50.7528958 20.34262065 50.41869827 19 50.125 C18.505 49.135 18.505 49.135 18 48.125 C12.81100071 46.51462091 8.41000193 45.89958325 3 46.125 C3 45.465 3 44.805 3 44.125 C0.03 44.125 -2.94 44.125 -6 44.125 Z M208 44.125 C208 44.785 208 45.445 208 46.125 C203.545 46.62 203.545 46.62 199 47.125 C199 48.115 199 49.105 199 50.125 C198.401875 50.269375 197.80375 50.41375 197.1875 50.5625 C195.43849596 51.0122439 193.71322977 51.55392341 192 52.125 C191.67 53.28 191.34 54.435 191 55.625 C190.67 56.78 190.34 57.935 190 59.125 C189.01 59.455 188.02 59.785 187 60.125 C186.97303991 62.8958983 186.95318048 65.6665345 186.9375 68.4375 C186.92912109 69.22318359 186.92074219 70.00886719 186.91210938 70.81835938 C186.90888672 71.57568359 186.90566406 72.33300781 186.90234375 73.11328125 C186.89710693 73.80977783 186.89187012 74.50627441 186.88647461 75.22387695 C186.93104009 77.34997968 186.93104009 77.34997968 188 80.125 C188.99 80.125 189.98 80.125 191 80.125 C191.12375 80.929375 191.2475 81.73375 191.375 82.5625 C191.58125 83.408125 191.7875 84.25375 192 85.125 C192.66 85.455 193.32 85.785 194 86.125 C194.33 87.115 194.66 88.105 195 89.125 C195.66 89.29 196.32 89.455 197 89.625 C197.66 89.79 198.32 89.955 199 90.125 C199.33 91.115 199.66 92.105 200 93.125 C203.4374823 93.15401394 206.87493312 93.17180335 210.3125 93.1875 C211.77719727 93.20006836 211.77719727 93.20006836 213.27148438 93.21289062 C214.20927734 93.21611328 215.14707031 93.21933594 216.11328125 93.22265625 C216.97735596 93.22789307 217.84143066 93.23312988 218.73168945 93.23852539 C221.16728714 93.21835523 221.16728714 93.21835523 224 92.125 C224.495 91.135 224.495 91.135 225 90.125 C227.0625 89 227.0625 89 229 88.125 C229 87.135 229 86.145 229 85.125 C230.98 84.63 230.98 84.63 233 84.125 C233.33 81.815 233.66 79.505 234 77.125 C234.99 76.795 235.98 76.465 237 76.125 C237.02701408 74.02090361 237.04640223 71.91670822 237.0625 69.8125 C237.07410156 68.64074219 237.08570313 67.46898437 237.09765625 66.26171875 C237.14899898 63.09440805 237.14899898 63.09440805 236 60.125 C235.34 59.795 234.68 59.465 234 59.125 C233.375 57.0625 233.375 57.0625 233 55.125 C232.01 55.125 231.02 55.125 230 55.125 C229.505 53.145 229.505 53.145 229 51.125 C227.68 50.795 226.36 50.465 225 50.125 C225 49.135 225 48.145 225 47.125 C222.03 46.795 219.06 46.465 216 46.125 C216 45.465 216 44.805 216 44.125 C213.36 44.125 210.72 44.125 208 44.125 Z M130.3125 80.625 C128.91732369 80.6733501 127.52214142 80.72152828 126.12695312 80.76953125 C122.75123975 80.88633794 119.37559629 81.0048652 116 81.125 C115.67 82.115 115.34 83.105 115 84.125 C113.40671875 84.10759766 113.40671875 84.10759766 111.78125 84.08984375 C101.35389085 84.0031229 101.35389085 84.0031229 91 85.125 C90.67 86.445 90.34 87.765 90 89.125 C88.68 89.125 87.36 89.125 86 89.125 C85.67 91.435 85.34 93.745 85 96.125 C84.01 96.455 83.02 96.785 82 97.125 C81.67 101.415 81.34 105.705 81 110.125 C80.01 110.125 79.02 110.125 78 110.125 C77.67 113.755 77.34 117.385 77 121.125 C76.01 121.455 75.02 121.785 74 122.125 C73.7525 123.115 73.7525 123.115 73.5 124.125 C73.2525 125.115 73.2525 125.115 73 126.125 C72.01 126.455 71.02 126.785 70 127.125 C69.67 128.28 69.34 129.435 69 130.625 C68.67 131.78 68.34 132.935 68 134.125 C67.01 134.455 66.02 134.785 65 135.125 C65 136.445 65 137.765 65 139.125 C64.0409375 139.2796875 64.0409375 139.2796875 63.0625 139.4375 C62.381875 139.664375 61.70125 139.89125 61 140.125 C60.67 141.115 60.34 142.105 60 143.125 C58.515 143.62 58.515 143.62 57 144.125 C56.67 145.115 56.34 146.105 56 147.125 C53.9375 147.8125 53.9375 147.8125 52 148.125 C52 149.115 52 150.105 52 151.125 C51.1028125 151.3415625 51.1028125 151.3415625 50.1875 151.5625 C48.43849596 152.0122439 46.71322977 152.55392341 45 153.125 C44.505 154.115 44.505 154.115 44 155.125 C42.35636866 155.84659424 40.68949614 156.51851421 39 157.125 C39 158.115 39 159.105 39 160.125 C38.05125 160.104375 37.1025 160.08375 36.125 160.0625 C33.09333717 159.89948174 33.09333717 159.89948174 31 161.125 C30.84126912 169.67324466 30.84126912 169.67324466 32 178.125 C32.99 178.125 33.98 178.125 35 178.125 C35.33 180.435 35.66 182.745 36 185.125 C37.65 185.455 39.3 185.785 41 186.125 C41 187.115 41 188.105 41 189.125 C44.24078125 190.06966756 47.27225655 190.31598828 50.640625 190.44140625 C51.71054687 190.48330078 52.78046875 190.52519531 53.8828125 190.56835938 C54.99398438 190.60767578 56.10515625 190.64699219 57.25 190.6875 C58.93996094 190.75227539 58.93996094 190.75227539 60.6640625 190.81835938 C63.44258954 190.92432015 66.22120391 191.02639142 69 191.125 C69.33 191.785 69.66 192.445 70 193.125 C73.795878 194.6433512 77.9877022 194.19187163 82 194.125 C82 195.115 82 196.105 82 197.125 C85.5482775 198.22348394 88.86210785 198.25841955 92.5625 198.25 C94.26599609 198.25386719 94.26599609 198.25386719 96.00390625 198.2578125 C99.05233998 198.2597228 99.05233998 198.2597228 102 197.125 C102.99 195.64 102.99 195.64 104 194.125 C104.99 193.795 105.98 193.465 107 193.125 C107.495 191.64 107.495 191.64 108 190.125 C108.99 189.795 109.98 189.465 111 189.125 C111.33 186.815 111.66 184.505 112 182.125 C113.32 181.795 114.64 181.465 116 181.125 C116 179.805 116 178.485 116 177.125 C117.32 176.795 118.64 176.465 120 176.125 C120 175.135 120 174.145 120 173.125 C121.32 172.795 122.64 172.465 124 172.125 C124 170.805 124 169.485 124 168.125 C124.99 168.125 125.98 168.125 127 168.125 C128.4606285 165.47761084 129 164.23051666 129 161.125 C129.99 161.125 130.98 161.125 132 161.125 C132.103125 160.485625 132.20625 159.84625 132.3125 159.1875 C132.539375 158.506875 132.76625 157.82625 133 157.125 C133.99 156.795 134.98 156.465 136 156.125 C136.33 154.475 136.66 152.825 137 151.125 C137.99 151.125 138.98 151.125 140 151.125 C141.4606285 148.47761084 142 147.23051666 142 144.125 C142.99 144.125 143.98 144.125 145 144.125 C145 142.805 145 141.485 145 140.125 C146.32 139.795 147.64 139.465 149 139.125 C149 137.805 149 136.485 149 135.125 C150.32 135.125 151.64 135.125 153 135.125 C153.103125 134.485625 153.20625 133.84625 153.3125 133.1875 C153.539375 132.506875 153.76625 131.82625 154 131.125 C154.99 130.795 155.98 130.465 157 130.125 C157.33 127.815 157.66 125.505 158 123.125 C158.9590625 122.9703125 158.9590625 122.9703125 159.9375 122.8125 C160.618125 122.585625 161.29875 122.35875 162 122.125 C162.33 121.135 162.66 120.145 163 119.125 C163.99 118.795 164.98 118.465 166 118.125 C166 116.805 166 115.485 166 114.125 C167.32 113.795 168.64 113.465 170 113.125 C170.020625 111.866875 170.04125 110.60875 170.0625 109.3125 C170.07990234 108.25095703 170.07990234 108.25095703 170.09765625 107.16796875 C170.08263217 104.92194539 170.08263217 104.92194539 169 102.125 C168.01 102.125 167.02 102.125 166 102.125 C165.67 100.475 165.34 98.825 165 97.125 C164.01 97.125 163.02 97.125 162 97.125 C161.8046875 95.07421875 161.609375 93.0234375 161.4140625 90.97265625 C161.27742187 90.36292969 161.14078125 89.75320313 161 89.125 C160.01 88.63 160.01 88.63 159 88.125 C158.1055569 85.51344699 157.59838627 82.81773823 157 80.125 C148.09469212 80.04060061 139.21123267 80.3076825 130.3125 80.625 Z M255 102.125 C254.67 103.115 254.34 104.105 254 105.125 C251.9375 106.3125 251.9375 106.3125 250 107.125 C250 108.115 250 109.105 250 110.125 C248.68 110.125 247.36 110.125 246 110.125 C246 111.445 246 112.765 246 114.125 C244.35 114.455 242.7 114.785 241 115.125 C241 116.115 241 117.105 241 118.125 C237.92382812 118.41796875 237.92382812 118.41796875 234.84765625 118.7109375 C234.23792969 118.84757812 233.62820313 118.98421875 233 119.125 C232.67 119.785 232.34 120.445 232 121.125 C227.93268155 122.50449396 223.75956286 122.25042929 219.515625 122.22265625 C218.70003113 122.2212413 217.88443726 122.21982635 217.04412842 122.21836853 C214.44604788 122.21278303 211.84805437 122.20023321 209.25 122.1875 C207.48567833 122.18248312 205.72135531 122.17792054 203.95703125 122.17382812 C199.63798744 122.16281835 195.31900846 122.14556369 191 122.125 C191 121.135 191 120.145 191 119.125 C184.93949386 118.0437609 184.93949386 118.0437609 179 119.125 C178.67 121.435 178.34 123.745 178 126.125 C176.68 126.455 175.36 126.785 174 127.125 C174 128.445 174 129.765 174 131.125 C173.360625 131.228125 172.72125 131.33125 172.0625 131.4375 C171.381875 131.664375 170.70125 131.89125 170 132.125 C169.505 133.61 169.505 133.61 169 135.125 C168.505 135.57875 168.01 136.0325 167.5 136.5 C165.56690264 138.59418881 165.37547204 140.34650692 165 143.125 C163.02 143.62 163.02 143.62 161 144.125 C161 145.115 161 146.105 161 147.125 C160.01 147.125 159.02 147.125 158 147.125 C157.896875 147.764375 157.79375 148.40375 157.6875 149.0625 C157.460625 149.743125 157.23375 150.42375 157 151.125 C156.01 151.455 155.02 151.785 154 152.125 C153.67 153.775 153.34 155.425 153 157.125 C152.01 157.125 151.02 157.125 150 157.125 C148.5393715 159.77238916 148 161.01948334 148 164.125 C147.01 164.125 146.02 164.125 145 164.125 C144.896875 164.764375 144.79375 165.40375 144.6875 166.0625 C144.460625 166.743125 144.23375 167.42375 144 168.125 C142.515 168.62 142.515 168.62 141 169.125 C141 170.445 141 171.765 141 173.125 C139.68 173.125 138.36 173.125 137 173.125 C136.67 175.435 136.34 177.745 136 180.125 C134.02 180.62 134.02 180.62 132 181.125 C132 182.445 132 183.765 132 185.125 C130.02 185.62 130.02 185.62 128 186.125 C128 187.445 128 188.765 128 190.125 C126.68 190.125 125.36 190.125 124 190.125 C124 191.445 124 192.765 124 194.125 C122.02 194.62 122.02 194.62 120 195.125 C119.67 197.435 119.34 199.745 119 202.125 C118.01 202.125 117.02 202.125 116 202.125 C114.99550215 205.47600483 114.83451171 208.57144298 114.8125 212.0625 C114.79832031 213.08214844 114.78414062 214.10179687 114.76953125 215.15234375 C115.00555086 218.19659667 115.71747005 220.37237643 117 223.125 C117.99 223.125 118.98 223.125 120 223.125 C120.33 224.775 120.66 226.425 121 228.125 C121.99 228.125 122.98 228.125 124 228.125 C124.12375 229.259375 124.2475 230.39375 124.375 231.5625 C124.58125 232.738125 124.7875 233.91375 125 235.125 C125.66 235.455 126.32 235.785 127 236.125 C127.63385922 238.16743528 128.01826504 240.21632519 128.4375 242.3125 C128.623125 242.910625 128.80875 243.50875 129 244.125 C129.66 244.455 130.32 244.785 131 245.125 C131.6328125 248.06640625 131.6328125 248.06640625 132.125 251.6875 C132.29257812 252.88503906 132.46015625 254.08257813 132.6328125 255.31640625 C132.75398438 256.24324219 132.87515625 257.17007813 133 258.125 C133.99 258.125 134.98 258.125 136 258.125 C135.979375 259.07375 135.95875 260.0225 135.9375 261 C135.77448174 264.03166283 135.77448174 264.03166283 137 266.125 C137.99 266.125 138.98 266.125 140 266.125 C140.495 268.105 140.495 268.105 141 270.125 C142.32 270.125 143.64 270.125 145 270.125 C145 271.115 145 272.105 145 273.125 C158.22872046 273.91620004 171.40846621 274.28527533 184.66064453 274.25537109 C187.55376165 274.2498983 190.44673062 274.25541778 193.33984375 274.26171875 C195.19531284 274.26105965 197.05078184 274.25978199 198.90625 274.2578125 C200.19202942 274.26084885 200.19202942 274.26084885 201.50378418 274.26394653 C202.29982056 274.26079437 203.09585693 274.25764221 203.91601562 274.25439453 C204.61069946 274.25359894 205.3053833 274.25280334 206.02111816 274.25198364 C208.17731126 274.11362204 209.97226649 273.88730042 212 273.125 C212.33 272.135 212.66 271.145 213 270.125 C213.99 269.795 214.98 269.465 216 269.125 C216.495 265.165 216.495 265.165 217 261.125 C217.99 261.125 218.98 261.125 220 261.125 C220.66 257.165 221.32 253.205 222 249.125 C222.99 248.795 223.98 248.465 225 248.125 C225 246.805 225 245.485 225 244.125 C225.99 244.125 226.98 244.125 228 244.125 C228.268125 242.990625 228.53625 241.85625 228.8125 240.6875 C229.204375 239.511875 229.59625 238.33625 230 237.125 C230.99 236.795 231.98 236.465 233 236.125 C233.33 235.135 233.66 234.145 234 233.125 C234.99 232.795 235.98 232.465 237 232.125 C237 230.805 237 229.485 237 228.125 C238.65 227.795 240.3 227.465 242 227.125 C242 226.135 242 225.145 242 224.125 C243.32 223.795 244.64 223.465 246 223.125 C246 222.135 246 221.145 246 220.125 C247.1446875 219.9084375 247.1446875 219.9084375 248.3125 219.6875 C251.08172908 219.1617406 251.08172908 219.1617406 254 218.125 C254 217.135 254 216.145 254 215.125 C256.64 214.795 259.28 214.465 262 214.125 C262 213.135 262 212.145 262 211.125 C266.455 210.63 266.455 210.63 271 210.125 C271 209.135 271 208.145 271 207.125 C272.19238281 207.06441406 273.38476562 207.00382812 274.61328125 206.94140625 C276.17969925 206.85698851 277.74610488 206.77234113 279.3125 206.6875 C280.09818359 206.64818359 280.88386719 206.60886719 281.69335938 206.56835938 C282.45068359 206.52646484 283.20800781 206.48457031 283.98828125 206.44140625 C284.68477783 206.40474854 285.38127441 206.36809082 286.09887695 206.33032227 C288.2216572 206.16918847 288.2216572 206.16918847 291 205.125 C291 204.465 291 203.805 291 203.125 C295.29 203.125 299.58 203.125 304 203.125 C304.33 204.115 304.66 205.105 305 206.125 C312.18971376 206.81442461 319.34179153 207.23005329 326.5625 207.25 C327.24054688 207.25451172 327.91859375 207.25902344 328.6171875 207.26367188 C333.42004166 207.32657479 333.42004166 207.32657479 338 206.125 C338.33 205.135 338.66 204.145 339 203.125 C339.99 202.795 340.98 202.465 342 202.125 C342.33 199.815 342.66 197.505 343 195.125 C343.99 195.125 344.98 195.125 346 195.125 C346.33 193.145 346.66 191.165 347 189.125 C347.99 189.125 348.98 189.125 350 189.125 C350.28875 187.990625 350.5775 186.85625 350.875 185.6875 C351.431875 183.9240625 351.431875 183.9240625 352 182.125 C352.66 181.795 353.32 181.465 354 181.125 C354 179.805 354 178.485 354 177.125 C353.01 177.125 352.02 177.125 351 177.125 C350.67 174.485 350.34 171.845 350 169.125 C349.01 169.125 348.02 169.125 347 169.125 C346.67 163.185 346.34 157.245 346 151.125 C345.01 151.125 344.02 151.125 343 151.125 C342.67 150.135 342.34 149.145 342 148.125 C339.69 147.795 337.38 147.465 335 147.125 C335 146.135 335 145.145 335 144.125 C332.03 143.63 332.03 143.63 329 143.125 C329 142.135 329 141.145 329 140.125 C326.36 139.795 323.72 139.465 321 139.125 C321 138.135 321 137.145 321 136.125 C318.36 135.795 315.72 135.465 313 135.125 C312.67 133.805 312.34 132.485 312 131.125 C309.69 130.795 307.38 130.465 305 130.125 C305 129.135 305 128.145 305 127.125 C302.36 126.795 299.72 126.465 297 126.125 C297 125.135 297 124.145 297 123.125 C295.02 122.795 293.04 122.465 291 122.125 C291 121.135 291 120.145 291 119.125 C288.36 118.795 285.72 118.465 283 118.125 C283 117.135 283 116.145 283 115.125 C281.865625 114.856875 280.73125 114.58875 279.5625 114.3125 C278.386875 113.920625 277.21125 113.52875 276 113.125 C275.67 112.135 275.34 111.145 275 110.125 C272.36 109.795 269.72 109.465 267 109.125 C267 108.135 267 107.145 267 106.125 C265.35 106.125 263.7 106.125 262 106.125 C262 104.805 262 103.485 262 102.125 C259.69 102.125 257.38 102.125 255 102.125 Z M-85 131.125 C-85.99 132.61 -85.99 132.61 -87 134.125 C-90.625 134.8125 -90.625 134.8125 -94 135.125 C-94.33 136.445 -94.66 137.765 -95 139.125 C-95.99 139.125 -96.98 139.125 -98 139.125 C-98.33 144.405 -98.66 149.685 -99 155.125 C-97.02 156.115 -97.02 156.115 -95 157.125 C-94.67 158.115 -94.34 159.105 -94 160.125 C-92.68 160.125 -91.36 160.125 -90 160.125 C-90 161.445 -90 162.765 -90 164.125 C-87.69 164.455 -85.38 164.785 -83 165.125 C-83 166.115 -83 167.105 -83 168.125 C-81.35 168.455 -79.7 168.785 -78 169.125 C-77.67 170.445 -77.34 171.765 -77 173.125 C-75.68 173.125 -74.36 173.125 -73 173.125 C-73 174.115 -73 175.105 -73 176.125 C-71.865625 176.393125 -70.73125 176.66125 -69.5625 176.9375 C-68.386875 177.329375 -67.21125 177.72125 -66 178.125 C-65.67 179.115 -65.34 180.105 -65 181.125 C-63.68 181.125 -62.36 181.125 -61 181.125 C-61 182.445 -61 183.765 -61 185.125 C-60.360625 185.228125 -59.72125 185.33125 -59.0625 185.4375 C-58.381875 185.664375 -57.70125 185.89125 -57 186.125 C-56.67 187.115 -56.34 188.105 -56 189.125 C-54.845 189.455 -53.69 189.785 -52.5 190.125 C-51.345 190.455 -50.19 190.785 -49 191.125 C-48.67 192.115 -48.34 193.105 -48 194.125 C-46.68 194.125 -45.36 194.125 -44 194.125 C-44 195.115 -44 196.105 -44 197.125 C-42.329375 197.49625 -42.329375 197.49625 -40.625 197.875 C-37 199.125 -37 199.125 -35.5625 201.25 C-35.2840625 202.178125 -35.2840625 202.178125 -35 203.125 C-34.01 203.125 -33.02 203.125 -32 203.125 C-31.67 204.115 -31.34 205.105 -31 206.125 C-29.515 206.62 -29.515 206.62 -28 207.125 C-27.67 208.115 -27.34 209.105 -27 210.125 C-24.03 210.455 -21.06 210.785 -18 211.125 C-18 212.115 -18 213.105 -18 214.125 C-15.36 214.125 -12.72 214.125 -10 214.125 C-10 213.135 -10 212.145 -10 211.125 C-7.36 210.795 -4.72 210.465 -2 210.125 C-2 209.135 -2 208.145 -2 207.125 C-1.236875 207.021875 -0.47375 206.91875 0.3125 206.8125 C3.29123061 206.05049915 3.9368354 205.27412979 6 203.125 C8.6875 201.9375 8.6875 201.9375 11 201.125 C11 200.135 11 199.145 11 198.125 C12.051875 198.228125 13.10375 198.33125 14.1875 198.4375 C18.11287283 198.45647032 18.11287283 198.45647032 21 195.875 C23.27323572 193.37715093 23.27323572 193.37715093 22.8125 190.8125 C22.4103125 189.9771875 22.4103125 189.9771875 22 189.125 C21.34 189.125 20.68 189.125 20 189.125 C19.67 185.495 19.34 181.865 19 178.125 C17.02 177.63 17.02 177.63 15 177.125 C14.67 175.475 14.34 173.825 14 172.125 C13.01 172.125 12.02 172.125 11 172.125 C11 171.135 11 170.145 11 169.125 C5.67132017 168.01558633 0.53718145 168.00951931 -4.875 168.0625 C-5.75414062 168.06701172 -6.63328125 168.07152344 -7.5390625 168.07617188 C-9.69273803 168.08787663 -11.84637817 168.10580931 -14 168.125 C-14 167.135 -14 166.145 -14 165.125 C-19.28 164.465 -24.56 163.805 -30 163.125 C-30 162.465 -30 161.805 -30 161.125 C-32.97 160.795 -35.94 160.465 -39 160.125 C-39 159.135 -39 158.145 -39 157.125 C-39.56589844 157.01542969 -40.13179687 156.90585937 -40.71484375 156.79296875 C-41.81505859 156.55513672 -41.81505859 156.55513672 -42.9375 156.3125 C-43.66839844 156.16167969 -44.39929688 156.01085937 -45.15234375 155.85546875 C-45.76207031 155.61441406 -46.37179687 155.37335938 -47 155.125 C-47.495 153.64 -47.495 153.64 -48 152.125 C-49.32 152.125 -50.64 152.125 -52 152.125 C-52.1546875 151.1659375 -52.1546875 151.1659375 -52.3125 150.1875 C-52.539375 149.506875 -52.76625 148.82625 -53 148.125 C-53.99 147.795 -54.98 147.465 -56 147.125 C-56.495 145.64 -56.495 145.64 -57 144.125 C-57.99 143.795 -58.98 143.465 -60 143.125 C-61.1875 141.0625 -61.1875 141.0625 -62 139.125 C-62.99 139.125 -63.98 139.125 -65 139.125 C-65.1546875 138.1659375 -65.1546875 138.1659375 -65.3125 137.1875 C-65.539375 136.506875 -65.76625 135.82625 -66 135.125 C-66.99 134.795 -67.98 134.465 -69 134.125 C-69.33 133.465 -69.66 132.805 -70 132.125 C-73.20962956 131.05512348 -75.68899262 130.92418844 -79.0625 130.875 C-80.12597656 130.84921875 -81.18945312 130.8234375 -82.28515625 130.796875 C-83.62900391 130.95929688 -83.62900391 130.95929688 -85 131.125 Z M-116 170.125 C-116 170.785 -116 171.445 -116 172.125 C-116.78246094 172.18558594 -117.56492187 172.24617187 -118.37109375 172.30859375 C-119.88896484 172.43427734 -119.88896484 172.43427734 -121.4375 172.5625 C-122.44683594 172.64371094 -123.45617187 172.72492188 -124.49609375 172.80859375 C-126.93640779 172.85711468 -126.93640779 172.85711468 -128 174.125 C-128.23363881 175.97391946 -128.41303635 177.82988031 -128.5625 179.6875 C-128.64628906 180.69941406 -128.73007812 181.71132813 -128.81640625 182.75390625 C-128.87699219 183.53636719 -128.93757813 184.31882812 -129 185.125 C-129.99 185.455 -130.98 185.785 -132 186.125 C-132.33 190.085 -132.66 194.045 -133 198.125 C-133.99 198.125 -134.98 198.125 -136 198.125 C-135.67 199.775 -135.34 201.425 -135 203.125 C-134.34 203.125 -133.68 203.125 -133 203.125 C-133 204.115 -133 205.105 -133 206.125 C-131.35 206.455 -129.7 206.785 -128 207.125 C-128 208.115 -128 209.105 -128 210.125 C-127.0409375 210.2796875 -127.0409375 210.2796875 -126.0625 210.4375 C-125.0415625 210.7778125 -125.0415625 210.7778125 -124 211.125 C-123.67 212.115 -123.34 213.105 -123 214.125 C-122.01 214.455 -121.02 214.785 -120 215.125 C-119.67 216.115 -119.34 217.105 -119 218.125 C-117.515 218.62 -117.515 218.62 -116 219.125 C-115.66666667 220.45833333 -115.33333333 221.79166667 -115 223.125 C-113.515 223.62 -113.515 223.62 -112 224.125 C-111.3125 226.1875 -111.3125 226.1875 -111 228.125 C-110.01 228.125 -109.02 228.125 -108 228.125 C-107.87882812 228.97964844 -107.75765625 229.83429688 -107.6328125 230.71484375 C-107.46523438 231.81957031 -107.29765625 232.92429687 -107.125 234.0625 C-106.96257812 235.16464844 -106.80015625 236.26679687 -106.6328125 237.40234375 C-106.42398438 238.30082031 -106.21515625 239.19929688 -106 240.125 C-105.34 240.455 -104.68 240.785 -104 241.125 C-103.62109375 243.59375 -103.62109375 243.59375 -103.4375 246.625 C-103.50678967 250.18830354 -103.50678967 250.18830354 -102 253.125 C-100.22130274 253.28264405 -98.43681524 253.37600677 -96.65234375 253.44140625 C-95.57275391 253.48330078 -94.49316406 253.52519531 -93.38085938 253.56835938 C-92.24455078 253.60767578 -91.10824219 253.64699219 -89.9375 253.6875 C-88.79732422 253.73068359 -87.65714844 253.77386719 -86.48242188 253.81835938 C-83.65507805 253.92482839 -80.82764262 254.02684207 -78 254.125 C-78 254.785 -78 255.445 -78 256.125 C-68.75433131 256.97653646 -59.59492312 257.27948361 -50.3125 257.25 C-48.42241211 257.25580078 -48.42241211 257.25580078 -46.49414062 257.26171875 C-45.29595703 257.26042969 -44.09777344 257.25914062 -42.86328125 257.2578125 C-41.78344971 257.25668457 -40.70361816 257.25555664 -39.59106445 257.25439453 C-37.01452026 257.2997793 -37.01452026 257.2997793 -35 256.125 C-35 255.135 -35 254.145 -35 253.125 C-33.68 252.795 -32.36 252.465 -31 252.125 C-31 250.805 -31 249.485 -31 248.125 C-30.01 248.125 -29.02 248.125 -28 248.125 C-25.84959186 239.65776794 -25.24550642 232.5334541 -28 224.125 C-29.485 223.63 -29.485 223.63 -31 223.125 C-31.33 222.135 -31.66 221.145 -32 220.125 C-33.155 219.795 -34.31 219.465 -35.5 219.125 C-36.655 218.795 -37.81 218.465 -39 218.125 C-39.33 217.135 -39.66 216.145 -40 215.125 C-41.485 214.63 -41.485 214.63 -43 214.125 C-43.33 213.135 -43.66 212.145 -44 211.125 C-44.66 210.96 -45.32 210.795 -46 210.625 C-46.66 210.46 -47.32 210.295 -48 210.125 C-48.33 209.135 -48.66 208.145 -49 207.125 C-51.31 206.795 -53.62 206.465 -56 206.125 C-56.495 204.145 -56.495 204.145 -57 202.125 C-58.32 202.125 -59.64 202.125 -61 202.125 C-61.495 200.145 -61.495 200.145 -62 198.125 C-63.32 198.125 -64.64 198.125 -66 198.125 C-66 197.135 -66 196.145 -66 195.125 C-66.969375 194.856875 -67.93875 194.58875 -68.9375 194.3125 C-69.948125 193.920625 -70.95875 193.52875 -72 193.125 C-72.495 191.64 -72.495 191.64 -73 190.125 C-73.99 189.8775 -73.99 189.8775 -75 189.625 C-75.99 189.3775 -75.99 189.3775 -77 189.125 C-77.495 187.64 -77.495 187.64 -78 186.125 C-80.31 185.795 -82.62 185.465 -85 185.125 C-85.495 183.145 -85.495 183.145 -86 181.125 C-87.32 181.125 -88.64 181.125 -90 181.125 C-90.495 179.145 -90.495 179.145 -91 177.125 C-92.32 177.125 -93.64 177.125 -95 177.125 C-95 175.805 -95 174.485 -95 173.125 C-97.31 172.795 -99.62 172.465 -102 172.125 C-102 171.135 -102 170.145 -102 169.125 C-106.60884653 166.82057673 -111.55106548 167.96794084 -116 170.125 Z M36 237.125 C35.67 237.785 35.34 238.445 35 239.125 C32.6859378 239.85575648 30.35171131 240.52638258 28 241.125 C28 242.115 28 243.105 28 244.125 C26.35 244.455 24.7 244.785 23 245.125 C23 246.445 23 247.765 23 249.125 C22.01 249.125 21.02 249.125 20 249.125 C18.74335022 252.03100261 18 253.92104584 18 257.125 C17.01 257.125 16.02 257.125 15 257.125 C14.67 261.415 14.34 265.705 14 270.125 C13.34 270.125 12.68 270.125 12 270.125 C12 272.435 12 274.745 12 277.125 C12.66 277.125 13.32 277.125 14 277.125 C14.33 281.745 14.66 286.365 15 291.125 C15.99 291.125 16.98 291.125 18 291.125 C18.33 293.435 18.66 295.745 19 298.125 C19.99 298.455 20.98 298.785 22 299.125 C22.66666667 300.45833333 23.33333333 301.79166667 24 303.125 C24.99 303.455 25.98 303.785 27 304.125 C27.33 305.115 27.66 306.105 28 307.125 C30.64 307.455 33.28 307.785 36 308.125 C36 309.115 36 310.105 36 311.125 C41.41808135 312.03523767 46.63615243 312.2773077 52.125 312.25 C53.30255859 312.25580078 53.30255859 312.25580078 54.50390625 312.26171875 C58.46883962 312.25503252 62.12967261 312.10423946 66 311.125 C66 310.135 66 309.145 66 308.125 C68.64 307.795 71.28 307.465 74 307.125 C74 306.135 74 305.145 74 304.125 C74.639375 304.021875 75.27875 303.91875 75.9375 303.8125 C76.618125 303.585625 77.29875 303.35875 78 303.125 C78.495 301.64 78.495 301.64 79 300.125 C79.99 299.795 80.98 299.465 82 299.125 C82 297.805 82 296.485 82 295.125 C83.32 294.795 84.64 294.465 86 294.125 C86.33 291.485 86.66 288.845 87 286.125 C87.99 286.125 88.98 286.125 90 286.125 C90 278.205 90 270.285 90 262.125 C88.515 261.63 88.515 261.63 87 261.125 C86.505 257.165 86.505 257.165 86 253.125 C84.515 252.63 84.515 252.63 83 252.125 C81.8125 250.0625 81.8125 250.0625 81 248.125 C80.01 248.125 79.02 248.125 78 248.125 C77.505 246.145 77.505 246.145 77 244.125 C76.01 244.125 75.02 244.125 74 244.125 C73.505 242.145 73.505 242.145 73 240.125 C70.69 239.795 68.38 239.465 66 239.125 C65.505 237.64 65.505 237.64 65 236.125 C60.72918086 236.09602565 56.45838691 236.07821004 52.1875 236.0625 C50.97255859 236.05412109 49.75761719 236.04574219 48.50585938 236.03710938 C47.34248047 236.03388672 46.17910156 236.03066406 44.98046875 236.02734375 C43.90692139 236.02210693 42.83337402 236.01687012 41.72729492 236.01147461 C38.90500635 236.00305412 38.90500635 236.00305412 36 237.125 Z M141 287.125 C141 288.115 141 289.105 141 290.125 C139.35 290.455 137.7 290.785 136 291.125 C136 292.445 136 293.765 136 295.125 C135.01 295.125 134.02 295.125 133 295.125 C132.67 297.765 132.34 300.405 132 303.125 C131.01 303.125 130.02 303.125 129 303.125 C128.67 306.095 128.34 309.065 128 312.125 C127.01 312.125 126.02 312.125 125 312.125 C124.731875 313.259375 124.46375 314.39375 124.1875 315.5625 C123.795625 316.738125 123.40375 317.91375 123 319.125 C121.515 319.62 121.515 319.62 120 320.125 C119.835 320.785 119.67 321.445 119.5 322.125 C119.335 322.785 119.17 323.445 119 324.125 C117.515 324.62 117.515 324.62 116 325.125 C115.67 327.435 115.34 329.745 115 332.125 C114.0409375 332.2796875 114.0409375 332.2796875 113.0625 332.4375 C112.0415625 332.7778125 112.0415625 332.7778125 111 333.125 C110.67 334.115 110.34 335.105 110 336.125 C109.01 336.785 108.02 337.445 107 338.125 C106.59636262 340.91759626 106.59636262 340.91759626 106.75 344.0625 C106.76546875 345.12339844 106.7809375 346.18429687 106.796875 347.27734375 C106.88703325 350.19931256 106.88703325 350.19931256 108 353.125 C108.99 353.125 109.98 353.125 111 353.125 C111.33 355.765 111.66 358.405 112 361.125 C112.99 361.455 113.98 361.785 115 362.125 C115.6875 364.1875 115.6875 364.1875 116 366.125 C116.99 366.125 117.98 366.125 119 366.125 C119.33 368.765 119.66 371.405 120 374.125 C120.99 374.455 121.98 374.785 123 375.125 C123.6875 377.1875 123.6875 377.1875 124 379.125 C124.99 379.125 125.98 379.125 127 379.125 C127.33 381.435 127.66 383.745 128 386.125 C129.32 386.455 130.64 386.785 132 387.125 C132.33 388.445 132.66 389.765 133 391.125 C135.3431213 390.86938677 137.67843403 390.53229228 140 390.125 C140.33 389.465 140.66 388.805 141 388.125 C151.56 388.125 162.12 388.125 173 388.125 C173.33 389.115 173.66 390.105 174 391.125 C176.97 391.455 179.94 391.785 183 392.125 C183 393.115 183 394.105 183 395.125 C185.64 395.125 188.28 395.125 191 395.125 C191.495 393.64 191.495 393.64 192 392.125 C192.99 391.795 193.98 391.465 195 391.125 C195.495 389.64 195.495 389.64 196 388.125 C196.99 387.795 197.98 387.465 199 387.125 C199.495 385.64 199.495 385.64 200 384.125 C200.99 383.795 201.98 383.465 203 383.125 C203.73323796 381.10991642 203.73323796 381.10991642 204 379.125 C205.32 378.795 206.64 378.465 208 378.125 C208 376.805 208 375.485 208 374.125 C208.99 374.125 209.98 374.125 211 374.125 C211.37125 373.25875 211.37125 373.25875 211.75 372.375 C213 370.125 213 370.125 215.125 368.0625 C217.34771071 366.21506673 217.34771071 366.21506673 217 363.125 C218.32 362.795 219.64 362.465 221 362.125 C221 360.805 221 359.485 221 358.125 C222.32 357.795 223.64 357.465 225 357.125 C225 356.135 225 355.145 225 354.125 C226.32 353.795 227.64 353.465 229 353.125 C229.02696009 350.3541017 229.04681952 347.5834655 229.0625 344.8125 C229.07506836 343.63397461 229.07506836 343.63397461 229.08789062 342.43164062 C229.09272461 341.2956543 229.09272461 341.2956543 229.09765625 340.13671875 C229.10551147 339.09197388 229.10551147 339.09197388 229.11352539 338.02612305 C229.06895991 335.90002032 229.06895991 335.90002032 228 333.125 C227.34 332.795 226.68 332.465 226 332.125 C225.26924352 329.8109378 224.59861742 327.47671131 224 325.125 C223.01 325.125 222.02 325.125 221 325.125 C220.505 320.67 220.505 320.67 220 316.125 C219.01 316.125 218.02 316.125 217 316.125 C216.67 311.835 216.34 307.545 216 303.125 C215.01 302.795 214.02 302.465 213 302.125 C212.505 298.66 212.505 298.66 212 295.125 C211.01 294.795 210.02 294.465 209 294.125 C208.505 292.64 208.505 292.64 208 291.125 C204.10085474 290.22765371 200.38265702 289.9363178 196.38671875 289.80859375 C195.13955078 289.76669922 193.89238281 289.72480469 192.60742188 289.68164062 C191.31384766 289.64232422 190.02027344 289.60300781 188.6875 289.5625 C187.37458984 289.51931641 186.06167969 289.47613281 184.70898438 289.43164062 C181.47275712 289.32572773 178.23645542 289.22365115 175 289.125 C175 288.465 175 287.805 175 287.125 C163.78 287.125 152.56 287.125 141 287.125 Z " fill="#7ED071" transform="translate(448,305.875)"/>
</svg>
