<?xml version="1.0" encoding="UTF-8"?>
<!DOCTYPE svg PUBLIC "-//W3C//DTD SVG 1.1//EN" "http://www.w3.org/Graphics/SVG/1.1/DTD/svg11.dtd">
<svg xmlns="http://www.w3.org/2000/svg" version="1.1" width="1080px" height="1080px" style="shape-rendering:geometricPrecision; text-rendering:geometricPrecision; image-rendering:optimizeQuality; fill-rule:evenodd; clip-rule:evenodd" xmlns:xlink="http://www.w3.org/1999/xlink">
<g><path style="opacity:0.972" fill="#7dd170" d="M 783.5,327.5 C 621.833,327.5 460.167,327.5 298.5,327.5C 298.5,439.833 298.5,552.167 298.5,664.5C 460.167,664.5 621.833,664.5 783.5,664.5C 783.5,677.5 783.5,690.5 783.5,703.5C 721.5,703.5 659.5,703.5 597.5,703.5C 597.5,727.833 597.5,752.167 597.5,776.5C 622.167,776.5 646.833,776.5 671.5,776.5C 671.5,789.5 671.5,802.5 671.5,815.5C 584.5,815.5 497.5,815.5 410.5,815.5C 410.5,802.5 410.5,789.5 410.5,776.5C 435.5,776.5 460.5,776.5 485.5,776.5C 485.5,752.167 485.5,727.833 485.5,703.5C 422.833,703.5 360.167,703.5 297.5,703.5C 297.5,690.5 297.5,677.5 297.5,664.5C 284.833,664.5 272.167,664.5 259.5,664.5C 259.5,552.167 259.5,439.833 259.5,327.5C 272.167,327.5 284.833,327.5 297.5,327.5C 297.5,314.5 297.5,301.5 297.5,288.5C 459.5,288.5 621.5,288.5 783.5,288.5C 783.5,301.5 783.5,314.5 783.5,327.5 Z"/></g>
<g><path style="opacity:0.967" fill="#7dd170" d="M 783.5,327.5 C 796.5,327.5 809.5,327.5 822.5,327.5C 822.5,439.833 822.5,552.167 822.5,664.5C 809.5,664.5 796.5,664.5 783.5,664.5C 783.5,552.167 783.5,439.833 783.5,327.5 Z"/></g>
</svg>
