<?xml version="1.0" encoding="UTF-8"?>
<!DOCTYPE svg PUBLIC "-//W3C//DTD SVG 1.1//EN" "http://www.w3.org/Graphics/SVG/1.1/DTD/svg11.dtd">
<svg xmlns="http://www.w3.org/2000/svg" version="1.1" width="1080px" height="1080px" style="shape-rendering:geometricPrecision; text-rendering:geometricPrecision; image-rendering:optimizeQuality; fill-rule:evenodd; clip-rule:evenodd" xmlns:xlink="http://www.w3.org/1999/xlink">
<g><path style="opacity:0.98" fill="#7dd170" d="M 634.5,271.5 C 637.425,271.46 640.091,272.293 642.5,274C 652,281.5 661.5,289 671,296.5C 673.18,300.414 672.846,304.081 670,307.5C 656.333,324.833 642.667,342.167 629,359.5C 628.333,360.833 628.333,362.167 629,363.5C 634.977,367.479 640.31,372.146 645,377.5C 646.434,381.406 646.767,385.406 646,389.5C 634.152,405.344 622.319,421.177 610.5,437C 615.104,442.282 618.937,448.115 622,454.5C 623.793,460.729 624.959,467.062 625.5,473.5C 676.123,515.862 694.623,569.529 681,634.5C 663.441,692.726 625.441,730.059 567,746.5C 566.833,749.833 566.667,753.167 566.5,756.5C 566.547,760.267 567.214,763.767 568.5,767C 597.833,767.333 627.167,767.667 656.5,768C 660.597,770.36 663.097,773.86 664,778.5C 664.92,788.242 664.587,797.908 663,807.5C 661.895,810.937 659.728,813.437 656.5,815C 573.5,815.667 490.5,815.667 407.5,815C 403.183,812.685 400.35,809.185 399,804.5C 398.333,795.833 398.333,787.167 399,778.5C 399.964,774.532 402.131,771.365 405.5,769C 435.414,767.682 465.414,767.015 495.5,767C 496.646,759.914 496.812,752.747 496,745.5C 450.64,733.134 416.807,706.301 394.5,665C 371.745,664.979 349.079,664.313 326.5,663C 323.312,661.066 321.812,658.232 322,654.5C 321.199,647.111 321.533,639.777 323,632.5C 324.167,630.667 325.667,629.167 327.5,628C 331.555,627.768 335.555,627.268 339.5,626.5C 394.126,627.329 448.792,627.829 503.5,628C 506,629.167 507.833,631 509,633.5C 509.667,641.5 509.667,649.5 509,657.5C 507.878,659.624 506.378,661.457 504.5,663C 484.107,663.988 463.774,664.988 443.5,666C 469.529,697.005 502.863,711.005 543.5,708C 581.215,703.232 610.049,684.732 630,652.5C 655.289,601.708 648.789,555.541 610.5,514C 608.023,512.357 605.69,510.524 603.5,508.5C 587.677,516.753 572.011,516.42 556.5,507.5C 554.239,508.682 552.405,510.349 551,512.5C 538.638,529.235 525.805,545.569 512.5,561.5C 482.19,538.518 452.19,515.185 422.5,491.5C 466.142,434.691 509.975,378.024 554,321.5C 560.705,316.392 567.538,316.225 574.5,321C 578.167,324 581.833,327 585.5,330C 586.5,330.667 587.5,330.667 588.5,330C 603.346,310.002 618.68,290.502 634.5,271.5 Z"/></g>
<g><path style="opacity:0.949" fill="#7dd170" d="M 421.5,508.5 C 424.649,508.211 427.649,508.711 430.5,510C 451.667,526.5 472.833,543 494,559.5C 495.885,561.914 496.552,564.581 496,567.5C 492.613,574.719 487.446,580.052 480.5,583.5C 478.459,582.764 476.459,581.931 474.5,581C 452.663,564.153 431.163,546.986 410,529.5C 409.333,527.167 409.333,524.833 410,522.5C 413.35,517.328 417.183,512.662 421.5,508.5 Z"/></g>
</svg>
