<?xml version="1.0" encoding="UTF-8"?>
<svg version="1.1" xmlns="http://www.w3.org/2000/svg" width="1080" height="1080">
<path d="M0 0 C1.48074139 0.38935298 2.96256923 0.7745915 4.4453125 1.15625 C13.23821552 3.45482903 21.70461313 6.22938767 30.15625 9.5703125 C33.02765596 10.68916545 35.91443834 11.55301636 38.8828125 12.37890625 C44.09264486 13.90957915 48.63607932 16.19394697 53.375 18.8125 C55.02930377 19.70822195 56.68425191 20.60275483 58.33984375 21.49609375 C59.13374512 21.92647949 59.92764648 22.35686523 60.74560547 22.80029297 C64.65219859 24.87924019 68.64617114 26.76928315 72.65234375 28.6484375 C75.22207208 30.12784849 76.94453748 31.88017017 79 34 C79.99 34.495 80.98 34.99 82 35.5 C85 37 85 37 86.9375 39 C88.96388727 41.22243453 88.96388727 41.22243453 92.1875 42.25 C96.42063965 43.92168572 99.28696622 46.72799362 102.5859375 49.80078125 C104.93410856 51.93997269 107.36579396 53.86650584 109.875 55.8125 C115.51407786 60.38127129 120.62035955 65.43335212 125.75 70.5625 C126.9563208 71.76773315 126.9563208 71.76773315 128.18701172 72.99731445 C135.67999461 80.55928922 142.4144141 88.30813428 148.5625 97 C149.64640156 98.52135644 150.7310327 100.04219336 151.81640625 101.5625 C152.34371338 102.30322754 152.87102051 103.04395508 153.41430664 103.80712891 C154.96220023 105.94772632 156.552497 108.0495003 158.15625 110.1484375 C166.83846641 121.67156284 173.32899943 135.58641247 179.03125 148.78515625 C180.18382407 151.4202752 181.40853712 154.01879901 182.625 156.625 C184.47974645 160.70204936 185.89264397 164.64967273 187 169 C187.49093564 170.73176198 187.99155419 172.46079788 188.5 174.1875 C188.85578125 175.41533203 188.85578125 175.41533203 189.21875 176.66796875 C189.92403477 178.97758702 189.92403477 178.97758702 191 180.91015625 C192.29942671 183.62575504 192.85919277 186.31064508 193.5 189.25 C193.88285156 190.96703125 193.88285156 190.96703125 194.2734375 192.71875 C194.51320313 193.8015625 194.75296875 194.884375 195 196 C195.77580049 200.88138853 195.77580049 200.88138853 198 205 C198.21430443 206.4612511 198.37047386 207.93115235 198.5 209.40234375 C198.62375 210.73749023 198.62375 210.73749023 198.75 212.09960938 C198.8325 213.03611328 198.915 213.97261719 199 214.9375 C199.16300982 216.78027505 199.32950937 218.62274575 199.5 220.46484375 C199.5721875 221.285896 199.644375 222.10694824 199.71875 222.95288086 C199.8967085 225.06117665 199.8967085 225.06117665 201 227 C202.84434054 246.37696051 202.68825607 266.00096468 200.32519531 285.31054688 C199.96451445 288.29347513 199.6346001 291.27914348 199.3046875 294.265625 C199.05860087 296.4064009 198.81122421 298.54702894 198.5625 300.6875 C198.45252686 301.67935303 198.34255371 302.67120605 198.22924805 303.69311523 C197.57994589 309.03277704 196.56411513 313.86917952 194.73803711 318.92944336 C193.62674212 322.0471717 192.82745837 325.23454655 192 328.4375 C187.61766215 345.08580154 187.61766215 345.08580154 183.94921875 351.97265625 C182.94695747 354.11328836 182.38799884 356.14709185 181.8125 358.4375 C179.75106676 365.788435 175.74370287 372.2832298 172.1015625 378.94189453 C170.06047755 382.75535778 168.22528333 386.66748985 166.38671875 390.58203125 C164.89239232 393.18763142 163.15115972 394.9230182 161 397 C159.98308736 398.99145391 158.98357352 400.99187074 158 403 C156.66666667 404.66666667 155.33333333 406.33333333 154 408 C153.5875 408.9075 153.175 409.815 152.75 410.75 C150.63834563 414.67164383 147.9277672 417.55880442 144.92578125 420.82421875 C143.34899483 422.60569955 142.02099938 424.31232169 140.75 426.3125 C139.02635364 428.95952833 137.25900208 430.80554084 135 433 C133.97300382 434.18217418 132.95302985 435.37046139 131.9375 436.5625 C128.86461557 440.09333048 125.66192976 443.48133906 122.375 446.8125 C121.47523438 447.72644531 120.57546875 448.64039063 119.6484375 449.58203125 C117.20221752 451.81537958 114.83992386 453.33371814 112 455 C110.948125 456.36125 110.948125 456.36125 109.875 457.75 C106.88372862 461.55707267 102.99324158 463.65800813 98.8984375 466.14453125 C96.06512045 467.95831238 93.52677077 469.91838777 90.9375 472.0625 C86.22681217 475.92347516 81.30294312 479.02139883 76 482 C75.3296875 482.38414062 74.659375 482.76828125 73.96875 483.1640625 C71.65965091 484.4695916 69.33304322 485.73764517 67 487 C66.35514648 487.35030273 65.71029297 487.70060547 65.04589844 488.06152344 C62.80457866 489.27611582 60.55906485 490.48263974 58.3125 491.6875 C57.58732178 492.08042236 56.86214355 492.47334473 56.11499023 492.87817383 C52.13859016 494.99761196 48.30643198 496.62894802 44 498 C42.35944518 498.80227759 40.73343924 499.63513431 39.125 500.5 C34.76071083 502.74129911 30.77159691 503.93050414 26 505 C24.65863633 505.65035814 23.32467746 506.3162955 22 507 C20.36361267 507.4909162 18.7258677 507.97834928 17.078125 508.4296875 C14.58547466 509.11376071 12.10466847 509.83276899 9.625 510.5625 C8.34496094 510.93568359 8.34496094 510.93568359 7.0390625 511.31640625 C5.0299725 511.82147027 5.0299725 511.82147027 4 513 C2.13176109 513.35066314 0.25479858 513.65529699 -1.625 513.9375 C-5.0096853 514.46983313 -8.10234719 515.03222041 -11.375 516.0625 C-16.13255638 517.29290251 -20.7966043 517.44186452 -25.6953125 517.65625 C-28.91837763 517.82923252 -28.91837763 517.82923252 -31.38165283 519.00531006 C-34.18603399 520.07067288 -36.21138692 520.25342203 -39.19824219 520.25878906 C-40.20989441 520.26509338 -41.22154663 520.27139771 -42.26385498 520.27789307 C-43.34725159 520.2738446 -44.43064819 520.26979614 -45.546875 520.265625 C-47.2355368 520.26849518 -47.2355368 520.26849518 -48.95831299 520.27142334 C-51.33874739 520.27278309 -53.71918926 520.26910131 -56.09960938 520.26074219 C-59.7228283 520.25007996 -63.34554688 520.26062421 -66.96875 520.2734375 C-69.28645942 520.27211509 -71.60416853 520.269551 -73.921875 520.265625 C-74.99717468 520.26967346 -76.07247437 520.27372192 -77.18035889 520.27789307 C-82.70392887 520.24389552 -87.69005466 519.81285824 -93.04632568 518.45898438 C-95.71070914 517.83303031 -98.31674256 517.71617207 -101.046875 517.6171875 C-108.30897861 517.13346972 -115.14716784 515.50314312 -122.15820312 513.67138672 C-124.25902768 513.12264193 -126.36331533 512.58934688 -128.46875 512.05859375 C-145.95860641 507.61153815 -145.95860641 507.61153815 -153.4375 504 C-156.44054769 502.61437422 -159.29653494 501.62014178 -162.5 500.8125 C-169.86201373 498.7404867 -176.42526491 494.69863297 -183.08837891 491.03320312 C-184.79294882 490.11190812 -186.52392819 489.23986315 -188.2578125 488.375 C-192.78599822 486.10445673 -197.09968342 483.45318326 -201.125 480.375 C-203.0914612 478.84800703 -203.0914612 478.84800703 -205.9375 477.5625 C-209.00817258 475.99583032 -211.34367403 474.17954952 -214 472 C-214.74378906 471.56300781 -215.48757813 471.12601563 -216.25390625 470.67578125 C-228.03014479 463.489428 -238.1380094 453.54560882 -248 444 C-248.75120117 443.27369385 -248.75120117 443.27369385 -249.51757812 442.53271484 C-257.69773307 434.58294674 -264.97574923 426.31202884 -271.5625 417 C-272.64640156 415.47864356 -273.7310327 413.95780664 -274.81640625 412.4375 C-275.60712524 411.32677124 -275.60712524 411.32677124 -276.41381836 410.19360352 C-277.96458577 408.04897596 -279.55762748 405.94296405 -281.1640625 403.83984375 C-285.37566658 398.24968314 -288.651159 392.12845295 -292 386 C-292.59578857 384.91114502 -292.59578857 384.91114502 -293.20361328 383.80029297 C-294.43567071 381.53787587 -295.65754115 379.27030285 -296.875 377 C-297.2563208 376.29431885 -297.6376416 375.5886377 -298.03051758 374.86157227 C-300.09306803 370.97233705 -301.64962925 367.20310203 -303 363 C-303.82412219 361.33891882 -304.67771977 359.69208031 -305.5625 358.0625 C-307.66470342 353.98067062 -308.46141864 350.57794154 -309 346 C-309.96885372 344.31503702 -310.96986723 342.64821244 -312 341 C-313.51241305 336.37379538 -314.51759282 331.68998722 -315.4375 326.91796875 C-315.89711008 324.78320342 -315.89711008 324.78320342 -318 323 C-318.41157319 320.93070147 -318.73242794 318.84279576 -319 316.75 C-319.43483368 313.380039 -319.88248054 310.33919342 -320.99609375 307.125 C-322.26184579 303.18491582 -322.65768021 299.35452065 -323.0625 295.25 C-323.41135065 289.96455793 -323.41135065 289.96455793 -325 285 C-325.11029907 283.44289043 -325.15910708 281.88122117 -325.17700195 280.3203125 C-325.18983719 279.34328369 -325.20267242 278.36625488 -325.21589661 277.35961914 C-325.22328354 276.29219482 -325.23067047 275.22477051 -325.23828125 274.125 C-325.246353 273.01310303 -325.25442474 271.90120605 -325.26274109 270.75561523 C-325.27661394 268.38152635 -325.28732167 266.00741724 -325.29516602 263.63330078 C-325.3065173 261.25400771 -325.32668926 258.87473648 -325.35668945 256.49560547 C-325.69139838 229.93205758 -322.34874536 203.32146945 -314 178 C-313.76539063 177.2471875 -313.53078125 176.494375 -313.2890625 175.71875 C-312.06678885 171.88107358 -310.68780605 168.22048269 -309 164.5625 C-307.12373585 160.4948739 -305.86139679 156.39077971 -304.7109375 152.06640625 C-304 150 -304 150 -302 148 C-301.24457242 146.29207677 -300.49320724 144.58196505 -299.78125 142.85546875 C-298.6502838 140.16942403 -297.32422808 137.59548703 -296 135 C-295.70222656 134.38253906 -295.40445312 133.76507813 -295.09765625 133.12890625 C-292.32549956 127.41759547 -289.23817397 121.92684288 -285.375 116.875 C-283.83958247 114.9023733 -283.83958247 114.9023733 -282.5625 112 C-281.00585598 109.01124347 -279.35440234 107.35440234 -277 105 C-276.70996094 104.2265625 -276.41992188 103.453125 -276.12109375 102.65625 C-274.86176592 99.67247676 -273.34188362 97.90905039 -271.125 95.5625 C-268.79335867 93.02883921 -266.59607656 90.59691666 -264.75 87.6875 C-263.02635364 85.04047167 -261.25900208 83.19445916 -259 81 C-257.99417924 79.83834785 -256.99503069 78.67090778 -256 77.5 C-252.75136876 73.76618358 -249.35199412 70.20710434 -245.875 66.6875 C-245.12089844 65.9140625 -245.12089844 65.9140625 -244.3515625 65.125 C-241.43562185 62.20138582 -238.55526824 60.06573344 -235 58 C-233.948125 56.63875 -233.948125 56.63875 -232.875 55.25 C-229.89320813 51.45753347 -226.02905677 49.38608903 -221.9453125 46.9140625 C-218.98219341 44.98842808 -216.41574957 42.87812127 -213.75 40.5625 C-208.3409018 35.99637815 -202.57109134 32.88203522 -196.28515625 29.7265625 C-193.13183487 28.1872007 -193.13183487 28.1872007 -191.06640625 26.51953125 C-187.91530254 24.20236803 -184.41687513 22.69765795 -180.875 21.0625 C-180.11670898 20.70841064 -179.35841797 20.35432129 -178.57714844 19.98950195 C-173.75608134 17.75644047 -168.8963952 15.7005383 -163.93359375 13.80078125 C-161.81488739 12.98020187 -161.81488739 12.98020187 -159.3125 11.375 C-156.96265206 9.97779312 -154.75561616 9.27538614 -152.12109375 8.58984375 C-149.54096866 7.8723504 -147.03162442 6.99832547 -144.5 6.125 C-135.84133741 3.20977189 -127.00144246 0.9600264 -118.125 -1.1875 C-115.15241131 -1.67878141 -115.15241131 -1.67878141 -114 -3 C-112.55052466 -3.21435117 -111.09231731 -3.37049749 -109.6328125 -3.5 C-108.74722656 -3.5825 -107.86164063 -3.665 -106.94921875 -3.75 C-106.01722656 -3.8325 -105.08523438 -3.915 -104.125 -4 C-102.2939798 -4.16343834 -100.46323287 -4.32997547 -98.6328125 -4.5 C-97.81699707 -4.5721875 -97.00118164 -4.644375 -96.16064453 -4.71875 C-93.82187296 -4.95319473 -93.82187296 -4.95319473 -91 -6 C-61.43171139 -8.95318296 -28.69127698 -8.35089143 0 0 Z M-92 46 C-94.47182984 46.38397357 -96.95230114 46.71510515 -99.4375 47 C-104.4988551 47.58140694 -109.11845591 48.55188644 -114 50 C-115.8871875 50.2475 -115.8871875 50.2475 -117.8125 50.5 C-121.08546573 50.6928085 -121.08546573 50.6928085 -123 53 C-125.0234375 53.5625 -125.0234375 53.5625 -127.375 54 C-129.73444642 54.44190301 -131.70569288 54.85098374 -133.8515625 55.9375 C-136 57 -136 57 -139.31640625 57.9140625 C-143.14133968 59.04166748 -146.39615881 60.55055201 -149.9375 62.375 C-151.17180042 63.00795795 -152.40617486 63.64077159 -153.640625 64.2734375 C-155.30351562 65.12808594 -155.30351562 65.12808594 -157 66 C-158.39475759 66.66891435 -159.79036242 67.33607099 -161.1875 68 C-166.36813819 70.59031909 -171.16160703 73.8300184 -176 77 C-176.7528125 77.4846875 -177.505625 77.969375 -178.28125 78.46875 C-188.31532401 85.01271131 -197.50597302 92.2205035 -206.2109375 100.421875 C-208.15842208 102.22207083 -210.09397844 103.92553349 -212.140625 105.6015625 C-218.56602437 110.99117345 -223.24103297 117.66072947 -228.078125 124.45703125 C-229.71597825 126.62419073 -231.34327645 128.45538571 -233.3125 130.3125 C-236.08804691 133.08804691 -237.35082673 135.47676619 -239 139 C-240.33333333 140.66666667 -241.66666667 142.33333333 -243 144 C-244.01765927 145.99107248 -245.01577854 147.99218823 -246 150 C-247.2111646 151.94580542 -248.4530401 153.86660862 -249.71875 155.77734375 C-251.08735588 158.15154115 -252.14736156 160.59721158 -253.20117188 163.12426758 C-254.26215017 165.61555616 -255.43182113 168.04875536 -256.6003418 170.4909668 C-259.14356818 175.81690383 -261.59466249 181.0967482 -263.31640625 186.75390625 C-264.17427707 189.57262466 -265.15828629 192.34182779 -266.125 195.125 C-267.56827398 199.43295417 -268.45759227 203.47993555 -269 208 C-269.30550781 208.84433594 -269.61101562 209.68867187 -269.92578125 210.55859375 C-271.32871697 215.05308964 -271.9359485 219.52987227 -272.5625 224.1875 C-272.75646362 225.60349487 -272.75646362 225.60349487 -272.9543457 227.0480957 C-273.31199584 229.69763568 -273.65885077 232.34829113 -274 235 C-274.20496094 236.5778125 -274.20496094 236.5778125 -274.4140625 238.1875 C-276.22059672 254.70438426 -276.28369541 273.60679449 -272.46875 289.8203125 C-271.80906028 292.88786971 -271.57067328 295.96397551 -271.34375 299.08984375 C-271.07299847 301.32227867 -271.07299847 301.32227867 -269 304 C-268.60159966 305.96710167 -268.27523466 307.94942111 -268 309.9375 C-267.4725669 313.73784384 -266.84271862 316.6397484 -265 320 C-264.0960261 323.01324633 -263.22664516 326.01167848 -262.5234375 329.078125 C-260.40245717 337.39236788 -256.13705766 344.58733829 -252.04541016 352.05859375 C-250.72805408 354.50502427 -249.51411735 356.99499967 -248.3125 359.5 C-246.31023263 363.57405792 -243.93170498 367.27444828 -241.33203125 370.9921875 C-240.04217788 372.93642395 -238.9967974 374.8930254 -238 377 C-237.34 377 -236.68 377 -236 377 C-235.74347656 377.72832031 -235.48695313 378.45664062 -235.22265625 379.20703125 C-231.8169265 386.98689315 -224.82903573 393.41405594 -219.15625 399.62109375 C-217.20384564 401.77510509 -215.31722641 403.97027726 -213.4375 406.1875 C-208.05374595 412.35097015 -201.71129363 417.28173086 -195.23046875 422.234375 C-193.00753816 423.99403284 -190.91239066 425.84609914 -188.8125 427.75 C-185.73568017 430.49105576 -182.74861241 432.25064754 -179 434 C-177.86498047 434.93585938 -177.86498047 434.93585938 -176.70703125 435.890625 C-173.87475589 438.09759281 -171.11921651 439.53796216 -167.875 441.0625 C-162.33019912 443.66897124 -162.33019912 443.66897124 -160.4453125 445.55859375 C-158.51382262 447.48486338 -156.55467984 448.08031526 -154 449 C-152.27008217 449.72738277 -150.54097733 450.45670078 -148.8125 451.1875 C-146.54235965 452.12667679 -144.2714434 453.06397909 -142 454 C-141.33242676 454.28069336 -140.66485352 454.56138672 -139.97705078 454.85058594 C-129.45779796 459.25511601 -119.18668748 462.3931479 -108 464.58691406 C-105.20257502 465.16470252 -102.45141338 465.9055277 -99.6875 466.625 C-85.14378578 469.98124174 -69.87253358 470.49235556 -55 470 C-54.23494141 469.97534668 -53.46988281 469.95069336 -52.68164062 469.92529297 C-44.75502101 469.641272 -36.99516511 469.29746954 -29.25 467.46875 C-25.87160254 466.7649172 -22.47093722 466.56145172 -19.03125 466.34375 C-16.77799295 466.16413103 -16.77799295 466.16413103 -15 464 C-12.86728277 463.59106354 -10.71733679 463.26905431 -8.5625 463 C-3.47162439 462.38430942 -3.47162439 462.38430942 1 460 C2.9837189 459.47968029 4.96882326 458.96311793 6.96484375 458.4921875 C9.7161677 457.82680013 12.33613585 456.95899109 15 456 C15.63550781 455.78085937 16.27101563 455.56171875 16.92578125 455.3359375 C29.2406151 450.78434088 41.4784707 444.26793195 52.01171875 436.4453125 C53.81526534 435.13428649 55.60157066 434.05350154 57.5625 433 C61.31929959 430.81422569 64.59737063 428.29790953 67.984375 425.5859375 C70 424 70 424 73 422 C73 421.34 73 420.68 73 420 C73.58007812 419.73832031 74.16015625 419.47664063 74.7578125 419.20703125 C77.13098755 417.9294858 78.8800843 416.49414053 80.875 414.6875 C83.23266043 412.56952779 85.58019167 410.53821479 88.0625 408.5625 C93.35563807 403.94508168 97.56004541 398.73725419 101.5 392.9375 C104.17166052 389.00823352 107.06838695 385.84547251 110.50390625 382.5859375 C112.62343636 380.3391249 113.72539507 377.79199175 115 375 C116.33333333 373.33333333 117.66666667 371.66666667 119 370 C120.01765927 368.00892752 121.01577854 366.00781177 122 364 C122.82156816 362.68010362 123.65571925 361.36798486 124.5 360.0625 C126.1520543 357.47775438 127.52486663 354.96371396 128.6875 352.125 C130 349 130 349 132 347 C132.6981378 345.27020108 133.33677319 343.51599207 133.9375 341.75 C135.01464431 338.67415457 136.07932911 335.84451495 137.5625 332.9375 C141.27449211 325.35212482 142.89508741 316.75241856 145.03515625 308.61328125 C145.63836384 306.35430546 146.27475185 304.10363258 146.95996094 301.86816406 C151.10365939 287.332196 151.46809055 271.94957066 151.33618164 256.9465332 C151.31208215 254.01161226 151.31571916 251.07757627 151.32226562 248.14257812 C151.31670184 246.25259879 151.30960023 244.3626232 151.30078125 242.47265625 C151.30214836 241.1742556 151.30214836 241.1742556 151.30354309 239.84962463 C151.24836615 235.14536073 150.70577251 231.44410488 149 227 C148.61128155 224.34645671 148.27222325 221.72675902 148 219.0625 C147.46224427 213.82934009 146.5690314 209.0530224 145 204 C144.566875 202.4221875 144.566875 202.4221875 144.125 200.8125 C142.85501759 196.50867074 141.43152927 192.27052067 139.984375 188.0234375 C139.1505506 185.46240541 138.47134198 182.92115812 137.8125 180.3125 C135.68461297 173.04711777 131.69314426 166.49546877 128.04980469 159.90283203 C127.17985885 158.32600461 126.32607261 156.74027418 125.4765625 155.15234375 C123.31430586 151.13770802 120.99479214 147.41605556 118.2109375 143.80078125 C117 142 117 142 115.68359375 139.22265625 C113.72365391 135.47103126 111.3468526 132.3983959 108.6875 129.125 C107.70227645 127.89651338 106.71789597 126.66735013 105.734375 125.4375 C105.26322266 124.8496875 104.79207031 124.261875 104.30664062 123.65625 C102.62304426 121.52218465 101.02768612 119.32921839 99.4375 117.125 C98.2309375 115.578125 98.2309375 115.578125 97 114 C96.34 114 95.68 114 95 114 C94.7421875 113.41734375 94.484375 112.8346875 94.21875 112.234375 C92.90165983 109.8197097 91.44911616 108.18259823 89.5 106.25 C88.8915625 105.63640625 88.283125 105.0228125 87.65625 104.390625 C86.10515723 102.78565912 86.10515723 102.78565912 84 103 C83.67 102.01 83.34 101.02 83 100 C82.34 100 81.68 100 81 100 C80.75636719 99.39800781 80.51273438 98.79601562 80.26171875 98.17578125 C78.75816005 95.58295712 77.37037094 94.71517852 74.8125 93.1875 C71.60535521 91.16382238 69.01812727 89.15185008 66.4375 86.375 C63.57038553 83.34823182 60.82178011 81.63240947 56.9921875 80.01953125 C55 79 55 79 52.64453125 77.08203125 C49.82376028 74.86124702 47.05113558 73.41184322 43.8125 71.875 C38.20705882 69.20705882 38.20705882 69.20705882 36 67 C34.7625 66.505 34.7625 66.505 33.5 66 C31 65 31 65 29 63 C27.00839846 62.30864787 25.00566889 61.64941261 23 61 C21.33391819 60.33702388 19.67290234 59.66125058 18.015625 58.9765625 C6.76975158 54.36984274 -4.08497635 50.61862348 -16.03222656 48.38525391 C-19.99192565 47.61001753 -23.89770819 46.58654199 -27.8125 45.61328125 C-35.68959381 44.09771296 -43.60748742 43.84177502 -51.609375 43.83203125 C-52.5798175 43.82870285 -53.55026001 43.82537445 -54.55010986 43.82194519 C-56.58369477 43.81692008 -58.6172878 43.81453548 -60.65087891 43.81469727 C-63.75567035 43.81249598 -66.86011425 43.79425319 -69.96484375 43.77539062 C-71.95051963 43.77245868 -73.93619718 43.77047256 -75.921875 43.76953125 C-76.84385681 43.76234573 -77.76583862 43.75516022 -78.71575928 43.74775696 C-83.58274296 43.76500395 -87.41134137 44.19603369 -92 46 Z " fill="#7DD070" transform="translate(595,318)"/>
<path d="M0 0 C1.20970459 0.00523682 2.41940918 0.01047363 3.66577148 0.01586914 C4.97094727 0.0190918 6.27612305 0.02231445 7.62084961 0.02563477 C9.00952213 0.03399138 10.39819401 0.04245634 11.78686523 0.05102539 C13.17944179 0.05603873 14.57202005 0.06060193 15.96459961 0.06469727 C19.38456394 0.07653105 22.80444367 0.09301659 26.22436523 0.11352539 C27.61996569 2.9047263 27.44244811 5.31558231 27.54077148 8.43383789 C27.57887939 9.5657959 27.6169873 10.69775391 27.65625 11.86401367 C27.69935303 13.30760254 27.74245605 14.75119141 27.78686523 16.23852539 C28.00342773 23.10665039 28.00342773 23.10665039 28.22436523 30.11352539 C37.79436523 30.44352539 47.36436523 30.77352539 57.22436523 31.11352539 C58.65945744 33.9837098 58.33595029 36.44896262 58.32202148 39.65258789 C58.31879883 40.95454102 58.31557617 42.25649414 58.31225586 43.59790039 C58.30389989 44.97810938 58.29543494 46.35831771 58.28686523 47.73852539 C58.28185025 49.12654465 58.27728734 50.51456561 58.27319336 51.90258789 C58.261375 55.30627671 58.24489957 58.70987978 58.22436523 62.11352539 C59.09762451 62.10828857 59.97088379 62.10305176 60.87060547 62.09765625 C64.10025796 62.08064788 67.32988769 62.0680917 70.55957031 62.05859375 C71.95931752 62.0535546 73.35905944 62.04672323 74.75878906 62.03808594 C76.766823 62.02600219 78.77489481 62.02082732 80.78295898 62.01586914 C82.59751587 62.00801392 82.59751587 62.00801392 84.44873047 62 C87.22436523 62.11352539 87.22436523 62.11352539 88.22436523 63.11352539 C88.33242188 64.68198658 88.3712031 66.25527005 88.38258362 67.82740784 C88.39726685 69.35663879 88.39726685 69.35663879 88.4122467 70.91676331 C88.41800217 72.04460739 88.42375763 73.17245148 88.4296875 74.33447266 C88.4395871 75.51480072 88.44948669 76.69512878 88.45968628 77.91122437 C88.48593602 81.15691658 88.5077724 84.40260334 88.52768826 87.64833951 C88.54951075 91.03698491 88.57691766 94.42558491 88.60374451 97.81419373 C88.6537221 104.23505049 88.69864205 110.65593239 88.74176687 117.07683843 C88.79109605 124.38509589 88.84603014 131.69330779 88.90144646 139.00152123 C89.01534424 154.03881353 89.12216622 169.07614869 89.22436523 184.11352539 C93.7670676 184.69331231 98.2394814 185.23915523 102.81811523 185.42993164 C103.69145508 185.46803955 104.56479492 185.50614746 105.46459961 185.54541016 C106.54032227 185.58851318 107.61604492 185.63161621 108.72436523 185.67602539 C112.18936523 185.82040039 115.65436523 185.96477539 119.22436523 186.11352539 C119.55436523 195.68352539 119.88436523 205.25352539 120.22436523 215.11352539 C130.12436523 215.44352539 140.02436523 215.77352539 150.22436523 216.11352539 C150.24691491 228.09156433 150.26527954 240.06958929 150.27617741 252.04764462 C150.28140657 257.60891951 150.28850482 263.17017918 150.29980469 268.73144531 C150.31063238 274.09359958 150.31664182 279.45573917 150.31924248 284.81790352 C150.32109694 286.86852818 150.32471795 288.91915199 150.33009529 290.96977043 C150.33730416 293.83142742 150.33835624 296.69302296 150.33789062 299.5546875 C150.3414859 300.41136017 150.34508118 301.26803284 150.3487854 302.15066528 C150.3384174 307.99947323 150.3384174 307.99947323 149.22436523 309.11352539 C147.0908335 309.21355828 144.95398982 309.24433587 142.81811523 309.24633789 C141.51745117 309.24762695 140.21678711 309.24891602 138.87670898 309.25024414 C138.19592285 309.24814941 137.51513672 309.24605469 136.8137207 309.24389648 C134.73308008 309.23854779 132.65265535 309.24384219 130.57202148 309.25024414 C128.62102539 309.24831055 128.62102539 309.24831055 126.63061523 309.24633789 C125.42727539 309.24520996 124.22393555 309.24408203 122.98413086 309.24291992 C120.22436523 309.11352539 120.22436523 309.11352539 119.22436523 308.11352539 C119.06577681 305.96965882 118.97307225 303.82085701 118.90795898 301.67211914 C118.84511719 299.71435547 118.84511719 299.71435547 118.78100586 297.71704102 C118.74118916 296.32837209 118.70147698 294.93970017 118.66186523 293.55102539 C118.61868535 292.15843356 118.57507123 290.76585511 118.53100586 289.37329102 C118.42450647 285.95347738 118.322496 282.53358776 118.22436523 279.11352539 C117.48742935 279.10321793 116.75049347 279.09291046 115.9912262 279.08229065 C109.06015448 278.98447896 102.12916621 278.88198823 95.19824314 278.77418613 C91.63463555 278.71892512 88.07101981 278.66550021 84.50732422 278.61621094 C80.41421278 278.55952007 76.32125913 278.49495221 72.22827148 278.42993164 C70.94287979 278.41321915 69.6574881 278.39650665 68.33314514 278.37928772 C67.15199631 278.3593425 65.97084747 278.33939728 64.75390625 278.31884766 C63.18504417 278.29553123 63.18504417 278.29553123 61.58448792 278.27174377 C59.22436523 278.11352539 59.22436523 278.11352539 58.22436523 277.11352539 C58.0782456 275.13883898 57.99697906 273.15928408 57.94311523 271.17993164 C57.88704102 269.37105469 57.88704102 269.37105469 57.82983398 267.52563477 C57.7950293 266.25526367 57.76022461 264.98489258 57.72436523 263.67602539 C57.65569542 261.17720715 57.58298668 258.67849558 57.50561523 256.17993164 C57.47532227 255.06561768 57.4450293 253.95130371 57.41381836 252.80322266 C57.39915484 250.14371825 57.39915484 250.14371825 56.22436523 248.11352539 C46.98436523 248.11352539 37.74436523 248.11352539 28.22436523 248.11352539 C28.1637793 252.34938477 28.10319336 256.58524414 28.04077148 260.94946289 C27.98982188 264.321924 27.93790159 267.69436704 27.88532257 271.06680298 C27.83004369 274.62954652 27.77648488 278.19229711 27.72705078 281.75512695 C27.67028356 285.84083141 27.6057447 289.92638064 27.54077148 294.01196289 C27.52405899 295.2921933 27.5073465 296.57242371 27.49012756 297.89144897 C27.47018234 299.07252228 27.45023712 300.25359558 27.4296875 301.47045898 C27.41414322 302.51414642 27.39859894 303.55783386 27.38258362 304.63314819 C27.22436523 307.11352539 27.22436523 307.11352539 26.22436523 309.11352539 C22.11263964 309.13818285 18.00094246 309.15636498 13.88916016 309.16845703 C12.48941295 309.17349619 11.08967103 309.18032756 9.68994141 309.18896484 C7.68190747 309.20104859 5.67383566 309.20622346 3.66577148 309.21118164 C2.45606689 309.21641846 1.2463623 309.22165527 0 309.22705078 C-2.77563477 309.11352539 -2.77563477 309.11352539 -3.77563477 308.11352539 C-3.86949857 306.24171599 -3.8930728 304.36634479 -3.88916016 302.4921875 C-3.88904686 300.69043312 -3.88904686 300.69043312 -3.88893127 298.85227966 C-3.88376999 297.54501419 -3.8786087 296.23774872 -3.87329102 294.89086914 C-3.87142675 293.54708407 -3.87000289 292.20329832 -3.8690033 290.85951233 C-3.86517878 287.31670263 -3.85534908 283.77393369 -3.84429932 280.23114014 C-3.83408376 276.61837323 -3.82945067 273.00559955 -3.82446289 269.39282227 C-3.81425694 262.29968726 -3.79468527 255.20666432 -3.77563477 248.11352539 C-13.67563477 248.11352539 -23.57563477 248.11352539 -33.77563477 248.11352539 C-34.10563477 257.68352539 -34.43563477 267.25352539 -34.77563477 277.11352539 C-37.39614493 278.42378047 -39.37639618 278.26703644 -42.31103516 278.30297852 C-43.46886002 278.31969604 -44.62668488 278.33641357 -45.81959534 278.3536377 C-47.7024247 278.37400085 -47.7024247 278.37400085 -49.62329102 278.39477539 C-51.58179348 278.42289563 -53.54029588 278.45102117 -55.4987936 278.4794693 C-59.64477684 278.53811537 -63.79087353 278.58810356 -67.93695068 278.6395874 C-71.35079121 278.68229899 -74.76458169 278.72687596 -78.17832947 278.77648926 C-80.74236542 278.81333126 -83.30646958 278.84572595 -85.87062073 278.87341309 C-87.02529343 278.89013062 -88.17996613 278.90684814 -89.36962891 278.92407227 C-90.39173965 278.93660034 -91.4138504 278.94912842 -92.4669342 278.96203613 C-94.73816317 278.85629013 -94.73816317 278.85629013 -95.77563477 280.11352539 C-95.92187638 282.17296918 -96.00305313 284.23709771 -96.05688477 286.30102539 C-96.09426758 287.55657227 -96.13165039 288.81211914 -96.17016602 290.10571289 C-96.20587362 291.44163577 -96.24102294 292.77757367 -96.27563477 294.11352539 C-96.34310957 296.71792675 -96.41684845 299.32187471 -96.49438477 301.92602539 C-96.52467773 303.0874707 -96.5549707 304.24891602 -96.58618164 305.44555664 C-96.77563477 308.11352539 -96.77563477 308.11352539 -97.77563477 309.11352539 C-99.92122303 309.20128144 -102.06967898 309.22047758 -104.21704102 309.21118164 C-105.5222168 309.20795898 -106.82739258 309.20473633 -108.17211914 309.20141602 C-109.56079166 309.1930594 -110.94946354 309.18459444 -112.33813477 309.17602539 C-113.73071132 309.17101205 -115.12328958 309.16644886 -116.51586914 309.16235352 C-119.93583347 309.15051973 -123.35571321 309.13403419 -126.77563477 309.11352539 C-127.6913368 304.44971669 -127.91842904 299.93601708 -127.9050293 295.19970703 C-127.90678162 294.42978928 -127.90853394 293.65987152 -127.91033936 292.86662292 C-127.91472049 290.33561919 -127.91183278 287.80468602 -127.90844727 285.27368164 C-127.90912145 283.50540656 -127.91009243 281.73713157 -127.91134644 279.96885681 C-127.9128184 276.26780309 -127.9106852 272.56677356 -127.90600586 268.86572266 C-127.90031307 264.13369092 -127.90358792 259.40171597 -127.90957832 254.66968632 C-127.91320101 251.0193184 -127.91203743 247.36896383 -127.90945053 243.7185955 C-127.90878577 241.97436962 -127.90959385 240.2301425 -127.91193008 238.48591805 C-127.91448422 236.04282575 -127.91057709 233.59982389 -127.9050293 231.15673828 C-127.90705353 230.4432724 -127.90907776 229.72980652 -127.91116333 228.99472046 C-127.89250076 224.53339906 -127.41637713 220.59872191 -126.77563477 216.11352539 C-117.20563477 215.78352539 -107.63563477 215.45352539 -97.77563477 215.11352539 C-97.44563477 205.87352539 -97.11563477 196.63352539 -96.77563477 187.11352539 C-92.80976477 185.13059039 -91.44389013 184.87992687 -87.20532227 184.95336914 C-86.14442383 184.96432617 -85.08352539 184.9752832 -83.99047852 184.98657227 C-82.88833008 185.0078418 -81.78618164 185.02911133 -80.65063477 185.05102539 C-78.46059504 185.08536399 -76.27048456 185.11552622 -74.08032227 185.14086914 C-73.11078613 185.15883545 -72.14125 185.17680176 -71.14233398 185.1953125 C-68.75619639 185.27716291 -68.75619639 185.27716291 -66.77563477 184.11352539 C-66.78007599 183.21707306 -66.78451721 182.32062073 -66.78909302 181.39700317 C-67.15210545 104.56623964 -67.15210545 104.56623964 -65.83813477 79.23852539 C-65.79456848 78.37825745 -65.7510022 77.5179895 -65.70611572 76.63165283 C-65.00971854 63.34760916 -65.00971854 63.34760916 -63.77563477 62.11352539 C-61.70478757 61.95509889 -59.62885447 61.86228117 -57.55297852 61.79711914 C-56.29291992 61.75522461 -55.03286133 61.71333008 -53.73461914 61.67016602 C-52.39412741 61.63034943 -51.05363257 61.59063725 -49.71313477 61.55102539 C-48.36871954 61.50784497 -47.02431817 61.46423084 -45.67993164 61.42016602 C-42.37861136 61.31367181 -39.07721241 61.21166079 -35.77563477 61.11352539 C-35.73805054 59.80363647 -35.73805054 59.80363647 -35.69970703 58.46728516 C-35.60475767 55.23749987 -35.50551448 52.00788385 -35.40332031 48.77832031 C-35.35992043 47.3786334 -35.31824913 45.9788918 -35.27832031 44.57910156 C-35.22074032 42.57091044 -35.15649477 40.5629139 -35.09204102 38.55493164 C-35.0553833 37.34522705 -35.01872559 36.13552246 -34.98095703 34.88916016 C-34.77563477 32.11352539 -34.77563477 32.11352539 -33.77563477 31.11352539 C-31.6317682 30.95493697 -29.48296638 30.86223241 -27.33422852 30.79711914 C-25.37646484 30.73427734 -25.37646484 30.73427734 -23.37915039 30.67016602 C-21.99048147 30.63034931 -20.60180955 30.59063714 -19.21313477 30.55102539 C-17.82054293 30.5078455 -16.42796449 30.46423139 -15.03540039 30.42016602 C-11.61558676 30.31366663 -8.19569714 30.21165616 -4.77563477 30.11352539 C-4.73805054 28.80363647 -4.73805054 28.80363647 -4.69970703 27.46728516 C-4.60475767 24.23749987 -4.50551448 21.00788385 -4.40332031 17.77832031 C-4.35992043 16.3786334 -4.31824913 14.9788918 -4.27832031 13.57910156 C-4.22074032 11.57091044 -4.15649477 9.5629139 -4.09204102 7.55493164 C-4.0553833 6.34522705 -4.01872559 5.13552246 -3.98095703 3.88916016 C-3.70447192 0.15151548 -3.70447192 0.15151548 0 0 Z M-3.77563477 93.11352539 C-3.77563477 103.01352539 -3.77563477 112.91352539 -3.77563477 123.11352539 C0.11607837 123.89186802 3.07435262 124.23197466 6.96264648 124.21118164 C8.0293457 124.20795898 9.09604492 124.20473633 10.19506836 124.20141602 C11.29786133 124.19303711 12.4006543 124.1846582 13.53686523 124.17602539 C15.22005859 124.16925781 15.22005859 124.16925781 16.93725586 124.16235352 C19.69968033 124.15059852 22.46199522 124.13416616 25.22436523 124.11352539 C27.1639045 120.84693294 27.48110895 118.38934001 27.48999023 114.61352539 C27.49256836 113.56165039 27.49514648 112.50977539 27.49780273 111.42602539 C27.49006836 110.33290039 27.48233398 109.23977539 27.47436523 108.11352539 C27.48209961 107.02040039 27.48983398 105.92727539 27.49780273 104.80102539 C27.49393555 103.22321289 27.49393555 103.22321289 27.48999023 101.61352539 C27.48773437 100.65446289 27.48547852 99.69540039 27.4831543 98.70727539 C27.21742145 96.04393031 26.58038495 94.39734806 25.22436523 92.11352539 C20.76604542 92.08460993 16.30774954 92.06675558 11.84936523 92.05102539 C10.57834961 92.04264648 9.30733398 92.03426758 7.99780273 92.02563477 C6.78608398 92.02241211 5.57436523 92.01918945 4.32592773 92.01586914 C3.20524902 92.01063232 2.08457031 92.00539551 0.92993164 92 C-1.7443082 91.92731073 -1.7443082 91.92731073 -3.77563477 93.11352539 Z M-3.77563477 155.11352539 C-4.01762568 159.04511677 -4.23256514 162.97716698 -4.42260742 166.91162109 C-4.52468418 168.90743948 -4.64810845 170.90212861 -4.77172852 172.89672852 C-4.82973633 174.1503418 -4.88774414 175.40395508 -4.94750977 176.69555664 C-5.01035156 177.85289307 -5.07319336 179.01022949 -5.13793945 180.20263672 C-5.04444604 183.15596149 -5.04444604 183.15596149 -3.14477539 184.99633789 C-0.15603348 186.40570341 2.00126983 186.4550415 5.30249023 186.40649414 C6.46264648 186.39682617 7.62280273 186.3871582 8.81811523 186.37719727 C10.02467773 186.35206055 11.23124023 186.32692383 12.47436523 186.30102539 C13.69639648 186.28749023 14.91842773 186.27395508 16.17749023 186.26000977 C19.19356021 186.2246652 22.20874011 186.17532099 25.22436523 186.11352539 C27.82513513 180.42017542 27.55509456 175.15003883 27.53686523 168.98852539 C27.56103516 167.34303711 27.56103516 167.34303711 27.58569336 165.66430664 C27.58633789 164.6137207 27.58698242 163.56313477 27.58764648 162.48071289 C27.59062744 161.52277832 27.5936084 160.56484375 27.59667969 159.57788086 C27.39361132 157.1097388 27.39361132 157.1097388 26.07104492 155.29858398 C23.43294831 153.60565419 21.43208639 153.75793219 18.31420898 153.78540039 C17.15985352 153.79055664 16.00549805 153.79571289 14.81616211 153.80102539 C13.61024414 153.82165039 12.40432617 153.84227539 11.16186523 153.86352539 C9.95208008 153.86868164 8.74229492 153.87383789 7.49584961 153.87915039 C1.68247516 153.64147497 1.68247516 153.64147497 -3.77563477 155.11352539 Z " fill="#7DCF70" transform="translate(521.775634765625,406.886474609375)"/>
<path d="M0 0 C0.99 0 1.98 0 3 0 C3.79969527 4.21174985 4.12212867 8.17992111 4.11352539 12.46435547 C4.11344986 13.72520966 4.11337433 14.98606384 4.11329651 16.28512573 C4.10819109 17.6458134 4.10297511 19.00650065 4.09765625 20.3671875 C4.09578912 21.77108713 4.09436661 23.17498742 4.09336853 24.57888794 C4.08956658 28.25807522 4.07975633 31.93722248 4.06866455 35.61639404 C4.05840031 39.37706969 4.0538602 43.13775186 4.04882812 46.8984375 C4.03813179 54.26564317 4.02108352 61.63281596 4 69 C2.02 69.99 2.02 69.99 0 71 C0.14147461 70.17894775 0.28294922 69.35789551 0.42871094 68.51196289 C2.08288225 57.7896477 2.30762094 47.23627558 2.26074219 36.39916992 C2.24990423 33.4110946 2.26075867 30.42360542 2.2734375 27.43554688 C2.27211769 25.51822785 2.269559 23.60090919 2.265625 21.68359375 C2.26967346 20.79917099 2.27372192 19.91474823 2.27789307 19.00352478 C2.24174996 14.23335598 1.71600129 10.51105462 0 6 C-0.125 2.625 -0.125 2.625 0 0 Z " fill="#6FB964" transform="translate(743,539)"/>
<path d="M0 0 C3.63 0 7.26 0 11 0 C6.50466266 3.371503 6.50466266 3.371503 2.41015625 3.66015625 C1.54326172 3.73169922 0.67636719 3.80324219 -0.21679688 3.87695312 C-1.11462891 3.93818359 -2.01246094 3.99941406 -2.9375 4.0625 C-9.38718257 4.38014904 -9.38718257 4.38014904 -15.546875 6.05078125 C-19.39700376 7.54056037 -23.22681979 7.2088419 -27.3125 7.125 C-28.14845703 7.11597656 -28.98441406 7.10695313 -29.84570312 7.09765625 C-31.89725969 7.07420989 -33.94866777 7.03834266 -36 7 C-36 6.01 -36 5.02 -36 4 C-24.31514365 3.23467608 -12.70954775 2.86660009 -1 3 C-0.67 2.01 -0.34 1.02 0 0 Z " fill="#6DB663" transform="translate(579,831)"/>
<path d="M0 0 C1.35283933 -0.00067447 2.70567854 -0.00164569 4.05851746 -0.00289917 C6.88008794 -0.00436689 9.70162659 -0.00224979 12.52319336 0.00244141 C16.14253905 0.00816563 19.76181101 0.00483693 23.38115406 -0.00113106 C26.16833557 -0.00473839 28.95549948 -0.00359777 31.7426815 -0.00100327 C33.72695845 -0.00001152 35.71123607 -0.00304911 37.69551086 -0.00613403 C38.89403183 -0.00298187 40.0925528 0.00017029 41.32739258 0.00341797 C42.91454826 0.00461136 42.91454826 0.00461136 44.5337677 0.00582886 C47.04296875 0.1328125 47.04296875 0.1328125 49.04296875 1.1328125 C49.04296875 2.1228125 49.04296875 3.1128125 49.04296875 4.1328125 C48.22771729 3.99133789 47.41246582 3.84986328 46.57250977 3.70410156 C35.70594653 2.02128888 24.99795438 1.82569441 14.01489258 1.87207031 C10.95439349 1.88290481 7.89446703 1.87205689 4.83398438 1.859375 C2.87109247 1.86069485 0.90820091 1.86325363 -1.0546875 1.8671875 C-1.96098404 1.86313904 -2.86728058 1.85909058 -3.80104065 1.85491943 C-8.6193804 1.89056971 -12.40693806 2.37159805 -16.95703125 4.1328125 C-19.83203125 4.2578125 -19.83203125 4.2578125 -21.95703125 4.1328125 C-21.62703125 3.1428125 -21.29703125 2.1528125 -20.95703125 1.1328125 C-13.99964591 -0.16907118 -7.05823133 -0.01105931 0 0 Z " fill="#6FB964" transform="translate(519.95703125,360.8671875)"/>
<path d="M0 0 C3.63 0 7.26 0 11 0 C11.33 0.99 11.66 1.98 12 3 C12.8521106 2.99214478 12.8521106 2.99214478 13.72143555 2.98413086 C24.53376259 2.89778962 35.23336745 2.88138883 46 4 C46.495 5.485 46.495 5.485 47 7 C39.89863761 7.1818272 33.2203321 7.34028817 26.33203125 5.5 C23.42623435 4.87698157 20.59126809 4.72981007 17.625 4.5625 C11.45779446 4.17023958 5.87452806 2.87184361 0 1 C0 0.67 0 0.34 0 0 Z " fill="#6CB461" transform="translate(476,831)"/>
<path d="M0 0 C1.670625 0.061875 1.670625 0.061875 3.375 0.125 C3.045 1.115 2.715 2.105 2.375 3.125 C1.24320313 3.24617187 0.11140625 3.36734375 -1.0546875 3.4921875 C-2.53651031 3.66100276 -4.01827842 3.83029855 -5.5 4 C-6.61955078 4.11794922 -6.61955078 4.11794922 -7.76171875 4.23828125 C-12.15055407 4.6330769 -12.15055407 4.6330769 -15.625 7.125 C-18.42236328 7.35205078 -18.42236328 7.35205078 -21.9453125 7.3203125 C-23.83056641 7.31064453 -23.83056641 7.31064453 -25.75390625 7.30078125 C-27.07261719 7.28402344 -28.39132812 7.26726563 -29.75 7.25 C-31.08983721 7.23996983 -32.42968152 7.23084404 -33.76953125 7.22265625 C-37.05486573 7.19902075 -40.33984465 7.16607234 -43.625 7.125 C-43.625 6.795 -43.625 6.465 -43.625 6.125 C-41.84996094 6.05152344 -41.84996094 6.05152344 -40.0390625 5.9765625 C-28.87289074 5.47993438 -28.87289074 5.47993438 -17.875 3.59375 C-14.49660254 2.8899172 -11.09593722 2.68645172 -7.65625 2.46875 C-4.06383979 1.86080366 -4.166801 0.14368279 0 0 Z " fill="#6EB763" transform="translate(583.625,780.875)"/>
<path d="M0 0 C0.33 0 0.66 0 1 0 C1 1.98 1 3.96 1 6 C0.01 6.33 -0.98 6.66 -2 7 C-2 9.31 -2 11.62 -2 14 C-3.32 14.33 -4.64 14.66 -6 15 C-5.95875 15.78375 -5.9175 16.5675 -5.875 17.375 C-6 20 -6 20 -8 22 C-8.28875 22.969375 -8.5775 23.93875 -8.875 24.9375 C-10.09098878 28.24769167 -11.03639805 29.22183883 -14 31 C-14.66 30.67 -15.32 30.34 -16 30 C-15.566875 29.443125 -15.13375 28.88625 -14.6875 28.3125 C-12.13369082 24.81283557 -10.08902795 21.31268327 -8.4375 17.3125 C-7 14 -7 14 -5 12 C-4.26027604 10.16604287 -3.57892059 8.30810683 -2.9375 6.4375 C-1.09722222 1.09722222 -1.09722222 1.09722222 0 0 Z " fill="#6AB05F" transform="translate(731,653)"/>
<path d="M0 0 C0.33 0 0.66 0 1 0 C1.04898437 1.18335938 1.09796875 2.36671875 1.1484375 3.5859375 C1.64596828 14.7867039 1.64596828 14.7867039 3.53125 25.8203125 C4.19093972 28.88786971 4.42932672 31.96397551 4.65625 35.08984375 C4.92700153 37.32227867 4.92700153 37.32227867 7 40 C7.125 43.1875 7.125 43.1875 7 46 C5 45 5 45 3.9375 42.5625 C2.92881075 38.72948086 2.58284759 35.11698522 2.34375 31.171875 C2.18545056 28.79353529 2.18545056 28.79353529 0 27 C-0.22705078 24.29443359 -0.22705078 24.29443359 -0.1953125 20.8984375 C-0.18886719 19.68671875 -0.18242187 18.475 -0.17578125 17.2265625 C-0.15902344 15.95554687 -0.14226562 14.68453125 -0.125 13.375 C-0.11146484 11.456875 -0.11146484 11.456875 -0.09765625 9.5 C-0.07402303 6.33314833 -0.04107629 3.16666576 0 0 Z " fill="#6BB260" transform="translate(320,582)"/>
<path d="M0 0 C0.99 0 1.98 0 3 0 C2.73445313 1.12792969 2.46890625 2.25585938 2.1953125 3.41796875 C-0.56540141 15.57111151 -2.06079206 27.58021085 -3 40 C-3.33 40 -3.66 40 -4 40 C-4 31.75 -4 23.5 -4 15 C-3.01 14.67 -2.02 14.34 -1 14 C-1.01160156 13.07316406 -1.02320313 12.14632812 -1.03515625 11.19140625 C-1.04417969 9.99386719 -1.05320312 8.79632812 -1.0625 7.5625 C-1.07410156 6.36753906 -1.08570313 5.17257812 -1.09765625 3.94140625 C-1 1 -1 1 0 0 Z " fill="#6CB360" transform="translate(324,524)"/>
<path d="M0 0 C11.71786804 0.61417791 23.34045234 1.6946376 35 3 C35 3.33 35 3.66 35 4 C24.11 4 13.22 4 2 4 C1.34 2.68 0.68 1.36 0 0 Z " fill="#6EB863" transform="translate(543,311)"/>
<path d="M0 0 C0.99 0 1.98 0 3 0 C1.62235451 3.05243019 0.00931835 5.28713946 -2.25 7.75 C-4.69436109 10.4676437 -6.93402892 13.21662612 -9.0625 16.1875 C-11.67597233 19.75901071 -14.48554079 22.3223168 -18 25 C-17.67 23.35 -17.34 21.7 -17 20 C-16.01 20 -15.02 20 -14 20 C-14 19.01 -14 18.02 -14 17 C-13.01 17 -12.02 17 -11 17 C-10.67 15.68 -10.34 14.36 -10 13 C-9.34 13 -8.68 13 -8 13 C-7.67 11.02 -7.34 9.04 -7 7 C-6.01 7 -5.02 7 -4 7 C-3.67 5.68 -3.34 4.36 -3 3 C-2.01 3 -1.02 3 0 3 C0 2.01 0 1.02 0 0 Z " fill="#6DB562" transform="translate(377,426)"/>
<path d="M0 0 C0.33 0 0.66 0 1 0 C1.3125 2.6875 1.3125 2.6875 1 6 C-1.375 8.875 -1.375 8.875 -4 11 C-4.66 11 -5.32 11 -6 11 C-6.268125 11.639375 -6.53625 12.27875 -6.8125 12.9375 C-8 15 -8 15 -11 16 C-11 16.66 -11 17.32 -11 18 C-11.99 18 -12.98 18 -14 18 C-14 18.66 -14 19.32 -14 20 C-16 21.625 -16 21.625 -18 23 C-18.66 22.67 -19.32 22.34 -20 22 C-19.43152344 21.5153125 -18.86304688 21.030625 -18.27734375 20.53125 C-11.13163089 14.32796004 -5.15302091 7.92772448 0 0 Z " fill="#6EB763" transform="translate(696,710)"/>
<path d="M0 0 C0.66 0.33 1.32 0.66 2 1 C1.68835671 4.1459188 1.37552415 7.29171832 1.0625 10.4375 C0.97548828 11.31599609 0.88847656 12.19449219 0.79882812 13.09960938 C0.2370974 18.7377215 -0.36423385 24.36974661 -1 30 C-1.33 30 -1.66 30 -2 30 C-2 20.43 -2 10.86 -2 1 C-1.34 0.67 -0.68 0.34 0 0 Z " fill="#6EB763" transform="translate(795,585)"/>
<path d="M0 0 C0.99 0.33 1.98 0.66 3 1 C1.11198772 4.4388795 -0.6183231 7.53974256 -3.125 10.5625 C-5.24104888 13.31336354 -5.98882317 15.69682236 -7 19 C-7.97004121 21.01470098 -8.96244882 23.01922047 -10 25 C-10.33 25 -10.66 25 -11 25 C-11 22.69 -11 20.38 -11 18 C-10.01 18 -9.02 18 -8 18 C-8 15.69 -8 13.38 -8 11 C-6.68 10.67 -5.36 10.34 -4 10 C-4 8.02 -4 6.04 -4 4 C-3.01 4 -2.02 4 -1 4 C-0.67 2.68 -0.34 1.36 0 0 Z " fill="#6AB05F" transform="translate(349,464)"/>
<path d="M0 0 C0.99 0.33 1.98 0.66 3 1 C-1.0587813 5.83452107 -5.31762196 10.44622971 -9.75 14.9375 C-11.13445313 16.34322266 -11.13445313 16.34322266 -12.546875 17.77734375 C-15 20 -15 20 -18 21 C-18 20.01 -18 19.02 -18 18 C-17.01 18 -16.02 18 -15 18 C-14.67 16.68 -14.34 15.36 -14 14 C-13.01 14 -12.02 14 -11 14 C-11 13.01 -11 12.02 -11 11 C-10.01 11 -9.02 11 -8 11 C-7.67 9.68 -7.34 8.36 -7 7 C-6.01 7 -5.02 7 -4 7 C-4 6.01 -4 5.02 -4 4 C-3.01 4 -2.02 4 -1 4 C-0.67 2.68 -0.34 1.36 0 0 Z " fill="#66AB5C" transform="translate(727,750)"/>
<path d="M0 0 C0.66 0 1.32 0 2 0 C3.3308911 2.66178221 3.11268993 4.68739396 3.09765625 7.6640625 C3.09443359 8.78554688 3.09121094 9.90703125 3.08789062 11.0625 C3.07951172 12.238125 3.07113281 13.41375 3.0625 14.625 C3.05798828 15.80835938 3.05347656 16.99171875 3.04882812 18.2109375 C3.03701467 21.14067507 3.02054258 24.07031272 3 27 C2.67 27 2.34 27 2 27 C-0.641513 18.08489362 -0.17875809 9.20604186 0 0 Z " fill="#6AB160" transform="translate(270,585)"/>
<path d="M0 0 C-0.33 0.99 -0.66 1.98 -1 3 C-12.35267742 3.79568202 -23.62018175 4.12818318 -35 4 C-35 3.67 -35 3.34 -35 3 C-34.16855469 2.93941406 -33.33710938 2.87882812 -32.48046875 2.81640625 C-31.39378906 2.73261719 -30.30710937 2.64882813 -29.1875 2.5625 C-27.56908203 2.44068359 -27.56908203 2.44068359 -25.91796875 2.31640625 C-22.94010095 2.09787539 -22.94010095 2.09787539 -20 1 C-17.16285868 0.77019155 -14.34134603 0.58217622 -11.5 0.4375 C-10.72785156 0.39431641 -9.95570313 0.35113281 -9.16015625 0.30664062 C-6.10320374 0.13975327 -3.06200617 0 0 0 Z " fill="#6DB562" transform="translate(524,311)"/>
<path d="M0 0 C4.28095589 1.05004579 7.02401898 1.75347525 10 5 C11.64034193 5.72904086 13.31301918 6.38655243 15 7 C16.27369644 7.53489954 17.54447063 8.07680144 18.8125 8.625 C20.3903125 9.305625 20.3903125 9.305625 22 10 C22 10.33 22 10.66 22 11 C19.125 11.125 19.125 11.125 16 11 C15.34 10.34 14.68 9.68 14 9 C12.989375 8.690625 11.97875 8.38125 10.9375 8.0625 C9.968125 7.711875 8.99875 7.36125 8 7 C7.67 6.01 7.34 5.02 7 4 C4.03 3.505 4.03 3.505 1 3 C0.67 2.01 0.34 1.02 0 0 Z " fill="#68AD5D" transform="translate(426,759)"/>
<path d="M0 0 C-1.70360754 1.588417 -3.41311829 3.17050381 -5.125 4.75 C-6.07632812 5.63171875 -7.02765625 6.5134375 -8.0078125 7.421875 C-10.91029774 9.92271085 -13.77508474 11.95213096 -17 14 C-16.67 12.35 -16.34 10.7 -16 9 C-14.68 9 -13.36 9 -12 9 C-12 8.01 -12 7.02 -12 6 C-11.01 6 -10.02 6 -9 6 C-9 5.01 -9 4.02 -9 3 C-8.01 3 -7.02 3 -6 3 C-6 2.01 -6 1.02 -6 0 C-3 -1 -3 -1 0 0 Z " fill="#6BB361" transform="translate(397,412)"/>
<path d="M0 0 C0.33 0 0.66 0 1 0 C1.05399736 1.45792884 1.09279177 2.91642712 1.125 4.375 C1.14820313 5.18710937 1.17140625 5.99921875 1.1953125 6.8359375 C1 9 1 9 -1 11 C-1.46290221 13.66242821 -1.46290221 13.66242821 -1.625 16.625 C-1.69976563 17.62789062 -1.77453125 18.63078125 -1.8515625 19.6640625 C-1.90054688 20.43492187 -1.94953125 21.20578125 -2 22 C-3.32 22.33 -4.64 22.66 -6 23 C-5.19152631 19.54071257 -4.37754006 16.08274571 -3.5625 12.625 C-3.33240234 11.64015625 -3.10230469 10.6553125 -2.86523438 9.640625 C-2.64287109 8.69960938 -2.42050781 7.75859375 -2.19140625 6.7890625 C-1.98717041 5.91975098 -1.78293457 5.05043945 -1.57250977 4.15478516 C-1 2 -1 2 0 0 Z " fill="#6DB662" transform="translate(742,616)"/>
<path d="M0 0 C0 3.68553144 -0.8522582 5.03759752 -3 8 C-4.65948148 9.01187895 -6.32580562 10.0126546 -8 11 C-8.309375 11.680625 -8.61875 12.36125 -8.9375 13.0625 C-10 15 -10 15 -13.125 16.25 C-14.07375 16.4975 -15.0225 16.745 -16 17 C-11.01595832 10.96668638 -5.58084697 5.4815829 0 0 Z " fill="#66AA5B" transform="translate(353,381)"/>
<path d="M0 0 C1.41523533 4.24570599 -0.38651386 7.0535945 -2 11 C-2.56723607 12.49821544 -3.12997285 13.99814457 -3.6875 15.5 C-4.120625 16.655 -4.55375 17.81 -5 19 C-5.33 19 -5.66 19 -6 19 C-6 16.03 -6 13.06 -6 10 C-5.01 9.67 -4.02 9.34 -3 9 C-2.87625 7.88625 -2.7525 6.7725 -2.625 5.625 C-2 2 -2 2 0 0 Z " fill="#6CB361" transform="translate(785,649)"/>
<path d="M0 0 C1.32 0.33 2.64 0.66 4 1 C4 3.64 4 6.28 4 9 C4.66 9 5.32 9 6 9 C6.84681133 14.08086796 7.09038099 18.84828377 7 24 C6.67 24 6.34 24 6 24 C5.87625 22.989375 5.7525 21.97875 5.625 20.9375 C5.02331105 17.14685959 4.1137289 13.66875401 3 10 C2.649375 8.7625 2.29875 7.525 1.9375 6.25 C1.33297339 4.15430774 0.68973752 2.06921256 0 0 Z " fill="#69B05F" transform="translate(736,512)"/>
<path d="M0 0 C6.75 -0.125 6.75 -0.125 9 1 C9 1.66 9 2.32 9 3 C10.670625 2.9690625 10.670625 2.9690625 12.375 2.9375 C16 3 16 3 18 4 C18 4.99 18 5.98 18 7 C11.89262558 5.23536928 5.92566493 3.30442525 0 1 C0 0.67 0 0.34 0 0 Z " fill="#6CB361" transform="translate(600,372)"/>
<path d="M0 0 C7.92 0.66 15.84 1.32 24 2 C24 2.33 24 2.66 24 3 C16.41 3 8.82 3 1 3 C0.67 2.01 0.34 1.02 0 0 Z " fill="#69AF5E" transform="translate(499,785)"/>
<path d="M0 0 C0.33 0 0.66 0 1 0 C2.14906464 3.85757416 3.16867399 7.6860982 4 11.625 C4.70822174 14.91317236 5.60995377 17.92204049 7 21 C6.01 21 5.02 21 4 21 C2.8422494 17.52674819 2.93133348 14.63932552 3 11 C2.34 11 1.68 11 1 11 C-0.28317892 7.15046324 -0.06643637 4.05261865 0 0 Z " fill="#6DB562" transform="translate(327,628)"/>
<path d="M0 0 C0.33 1.32 0.66 2.64 1 4 C0.01 4.495 0.01 4.495 -1 5 C-1.28875 5.928125 -1.5775 6.85625 -1.875 7.8125 C-3.07445781 11.2109638 -4.22959045 12.74904224 -7 15 C-7.66 15 -8.32 15 -9 15 C-8.33333333 13.66666667 -7.66666667 12.33333333 -7 11 C-6.54625 10.030625 -6.0925 9.06125 -5.625 8.0625 C-4.02243759 5.04228622 -2.21351904 2.59516025 0 0 Z " fill="#6AB15F" transform="translate(311,433)"/>
<path d="M0 0 C-0.66 1.32 -1.32 2.64 -2 4 C-4.97 4 -7.94 4 -11 4 C-11.33 4.99 -11.66 5.98 -12 7 C-13.65 7 -15.3 7 -17 7 C-14.70424908 4.3573028 -12.77156016 3.37466878 -9.4375 2.375 C-1.66129032 0 -1.66129032 0 0 0 Z " fill="#6DB562" transform="translate(450,325)"/>
<path d="M0 0 C1.9375 0.375 1.9375 0.375 4 1 C4.33 1.66 4.66 2.32 5 3 C5.99 3.33 6.98 3.66 8 4 C8.33 4.99 8.66 5.98 9 7 C10.2684375 7.99 10.2684375 7.99 11.5625 9 C12.366875 9.66 13.17125 10.32 14 11 C14 11.99 14 12.98 14 14 C13.34 14 12.68 14 12 14 C10.44921875 12.42578125 10.44921875 12.42578125 8.6875 10.3125 C6.5559516 7.79745126 4.42754184 5.35996922 2.0625 3.0625 C1.381875 2.381875 0.70125 1.70125 0 1 C0 0.67 0 0.34 0 0 Z " fill="#6AB15F" transform="translate(678,418)"/>
<path d="M0 0 C-3.30087354 3.1573573 -6.62582744 3.71380711 -10.9765625 4.47265625 C-13.20973739 4.87245547 -13.20973739 4.87245547 -15 7 C-15.99 7 -16.98 7 -18 7 C-18 6.01 -18 5.02 -18 4 C-14.78548731 2.39274365 -11.56387464 2.94251815 -8 3 C-8 2.34 -8 1.68 -8 1 C-5.07175348 0.02391783 -3.04386724 -0.08226668 0 0 Z " fill="#6EB763" transform="translate(466,372)"/>
<path d="M0 0 C2.4375 0.375 2.4375 0.375 5 1 C5.33 1.66 5.66 2.32 6 3 C8.01669827 4.13350534 8.01669827 4.13350534 10 5 C10 5.66 10 6.32 10 7 C10.99 7 11.98 7 13 7 C12.67 8.32 12.34 9.64 12 11 C9.99702215 9.35767739 7.99756092 7.71138756 6 6.0625 C5.42765625 5.59392578 4.8553125 5.12535156 4.265625 4.64257812 C2.82502935 3.45065672 1.41025129 2.22767412 0 1 C0 0.67 0 0.34 0 0 Z " fill="#6BB361" transform="translate(366,778)"/>
<path d="M0 0 C-0.66 1.32 -1.32 2.64 -2 4 C-6.62 4 -11.24 4 -16 4 C-16 3.67 -16 3.34 -16 3 C-13.89679937 2.49595192 -11.79240209 1.99689492 -9.6875 1.5 C-8.51574219 1.2215625 -7.34398437 0.943125 -6.13671875 0.65625 C-3 0 -3 0 0 0 Z " fill="#6FB964" transform="translate(475,318)"/>
<path d="M0 0 C2.31 0 4.62 0 7 0 C4.08411448 2.42201164 1.58365335 3.62409516 -2.0625 4.625 C-2.91972656 4.86476563 -3.77695312 5.10453125 -4.66015625 5.3515625 C-5.43230469 5.56554687 -6.20445312 5.77953125 -7 6 C-7.99 6.33 -8.98 6.66 -10 7 C-10 6.34 -10 5.68 -10 5 C-9.34 5 -8.68 5 -8 5 C-8 4.34 -8 3.68 -8 3 C-5.36 3 -2.72 3 0 3 C0 2.01 0 1.02 0 0 Z " fill="#6DB662" transform="translate(628,817)"/>
<path d="M0 0 C-1.41319977 1.12935196 -2.83071405 2.25330626 -4.25 3.375 C-5.03890625 4.00148438 -5.8278125 4.62796875 -6.640625 5.2734375 C-8.71181189 6.78910737 -10.67069497 7.94219634 -13 9 C-12.67 8.01 -12.34 7.02 -12 6 C-11.34 6 -10.68 6 -10 6 C-9.67 5.01 -9.34 4.02 -9 3 C-8.01 3 -7.02 3 -6 3 C-6 2.01 -6 1.02 -6 0 C-3.50907189 -1.24546405 -2.58919267 -0.7767578 0 0 Z " fill="#6CB461" transform="translate(411,401)"/>
<path d="M0 0 C0.66 0 1.32 0 2 0 C0.55575365 3.23861303 -1.25772247 5.61969163 -3.625 8.25 C-4.25664063 8.95640625 -4.88828125 9.6628125 -5.5390625 10.390625 C-6.02117188 10.92171875 -6.50328125 11.4528125 -7 12 C-7.33 10.68 -7.66 9.36 -8 8 C-7.01 8 -6.02 8 -5 8 C-4.67 6.35 -4.34 4.7 -4 3 C-3.01 3 -2.02 3 -1 3 C-0.67 2.01 -0.34 1.02 0 0 Z " fill="#6BB360" transform="translate(745,729)"/>
<path d="M0 0 C0.33 0 0.66 0 1 0 C1 4.95 1 9.9 1 15 C0.01 15.33 -0.98 15.66 -2 16 C-1.85936865 13.70800823 -1.71234057 11.41640814 -1.5625 9.125 C-1.48128906 7.84882812 -1.40007812 6.57265625 -1.31640625 5.2578125 C-1 2 -1 2 0 0 Z " fill="#70BB65" transform="translate(272,549)"/>
<path d="M0 0 C0.99 0.33 1.98 0.66 3 1 C-1.14285714 8.57142857 -1.14285714 8.57142857 -4 11 C-4 8.69 -4 6.38 -4 4 C-3.01 3.67 -2.02 3.34 -1 3 C-0.67 2.01 -0.34 1.02 0 0 Z " fill="#6CB461" transform="translate(762,701)"/>
<path d="M0 0 C0.99 0.33 1.98 0.66 3 1 C1.90033225 2.29549899 0.79508199 3.58626071 -0.3125 4.875 C-0.92738281 5.59429687 -1.54226563 6.31359375 -2.17578125 7.0546875 C-4 9 -4 9 -7 11 C-6.67 9.35 -6.34 7.7 -6 6 C-5.01 6 -4.02 6 -3 6 C-3 5.01 -3 4.02 -3 3 C-2.01 3 -1.02 3 0 3 C0 2.01 0 1.02 0 0 Z " fill="#67AB5C" transform="translate(366,440)"/>
<path d="M0 0 C3.21272249 1.43993643 5.6206664 3.23018372 8.25 5.5625 C8.95640625 6.18253906 9.6628125 6.80257813 10.390625 7.44140625 C10.92171875 7.95574219 11.4528125 8.47007812 12 9 C12 9.33 12 9.66 12 10 C10.35 10 8.7 10 7 10 C7 9.01 7 8.02 7 7 C6.34 7 5.68 7 5 7 C4.34 6.01 3.68 5.02 3 4 C2.01 3.67 1.02 3.34 0 3 C0 2.01 0 1.02 0 0 Z " fill="#69B05F" transform="translate(688,361)"/>
<path d="M0 0 C1.95825873 -0.02694851 3.91662226 -0.04637218 5.875 -0.0625 C6.96554687 -0.07410156 8.05609375 -0.08570313 9.1796875 -0.09765625 C12 0 12 0 14 1 C14 1.99 14 2.98 14 4 C9.38 3.01 4.76 2.02 0 1 C0 0.67 0 0.34 0 0 Z " fill="#6EB863" transform="translate(459,827)"/>
<path d="M0 0 C0.99 0.33 1.98 0.66 3 1 C3 1.66 3 2.32 3 3 C3.66 3 4.32 3 5 3 C5.33 3.99 5.66 4.98 6 6 C6.99 6.33 7.98 6.66 9 7 C9.33 9.31 9.66 11.62 10 14 C6.95483798 11.16667533 4.83131399 8.34499689 2.75 4.75 C2.22921875 3.85796875 1.7084375 2.9659375 1.171875 2.046875 C0.78515625 1.37140625 0.3984375 0.6959375 0 0 Z " fill="#6BB361" transform="translate(320,729)"/>
<path d="M0 0 C0.33 0 0.66 0 1 0 C1 3.63 1 7.26 1 11 C-0.98 11.99 -0.98 11.99 -3 13 C-2.01 8.71 -1.02 4.42 0 0 Z " fill="#6CB461" transform="translate(276,517)"/>
<path d="M0 0 C0.99 0 1.98 0 3 0 C3.33 2.31 3.66 4.62 4 7 C4.66 7 5.32 7 6 7 C6.33 8.98 6.66 10.96 7 13 C0 4.79310345 0 4.79310345 0 0 Z " fill="#6CB461" transform="translate(305,705)"/>
<path d="M0 0 C0.99 0.33 1.98 0.66 3 1 C2.40716801 2.94099815 1.80029748 4.87771245 1.1875 6.8125 C0.85105469 7.89144531 0.51460937 8.97039063 0.16796875 10.08203125 C-0.92760475 12.81913293 -1.75283788 14.16492491 -4 16 C-4 14.35 -4 12.7 -4 11 C-3.01 10.67 -2.02 10.34 -1 10 C-0.67 6.7 -0.34 3.4 0 0 Z " fill="#6BB360" transform="translate(776,669)"/>
<path d="M0 0 C0.33 0 0.66 0 1 0 C1.52923572 2.12292296 2.04815377 4.24842051 2.5625 6.375 C2.85253906 7.55835938 3.14257812 8.74171875 3.44140625 9.9609375 C4 13 4 13 3 15 C1.51171875 13.88671875 1.51171875 13.88671875 0 12 C-0.29296875 9.08203125 -0.29296875 9.08203125 -0.1875 5.8125 C-0.16042969 4.72582031 -0.13335938 3.63914062 -0.10546875 2.51953125 C-0.07066406 1.68808594 -0.03585937 0.85664063 0 0 Z " fill="#6DB562" transform="translate(786,501)"/>
<path d="M0 0 C2.31 0 4.62 0 7 0 C3.09130466 3.15702316 -0.8614939 6 -6 6 C-5.34 5.01 -4.68 4.02 -4 3 C-3.01 3 -2.02 3 -1 3 C-0.67 2.01 -0.34 1.02 0 0 Z " fill="#6DB562" transform="translate(441,379)"/>
<path d="M0 0 C2.96659857 3.55991828 5.381348 7.65222543 7 12 C6.67 12.66 6.34 13.32 6 14 C5.34 13.67 4.68 13.34 4 13 C3.375 10.4375 3.375 10.4375 3 8 C2.34 8 1.68 8 1 8 C-0.35439668 5.29120665 -0.06501451 2.99066732 0 0 Z " fill="#6AB160" transform="translate(334,652)"/>
<path d="M0 0 C3.80635497 3.20760251 7.54563567 6.40746109 11 10 C10.67 10.66 10.34 11.32 10 12 C6.15216516 8.93922229 2.85267377 6.05957421 0 2 C0 1.34 0 0.68 0 0 Z " fill="#6AB05F" transform="translate(719,388)"/>
<path d="M0 0 C-3.46741134 2.95749791 -6.86873527 5.07848152 -11 7 C-11 6.01 -11 5.02 -11 4 C-10.01 4 -9.02 4 -8 4 C-8 3.01 -8 2.02 -8 1 C-5.29120665 -0.35439668 -2.99066732 -0.06501451 0 0 Z " fill="#6CB461" transform="translate(671,799)"/>
<path d="M0 0 C0.99 0 1.98 0 3 0 C2.8864371 1.64666203 2.75882619 3.29236082 2.625 4.9375 C2.52058594 6.31228516 2.52058594 6.31228516 2.4140625 7.71484375 C2.27742187 8.46894531 2.14078125 9.22304688 2 10 C1.01 10.495 1.01 10.495 0 11 C0 7.37 0 3.74 0 0 Z " fill="#68AD5D" transform="translate(790,620)"/>
<path d="M0 0 C4.29 0 8.58 0 13 0 C13.33 1.32 13.66 2.64 14 4 C9.38 3.01 4.76 2.02 0 1 C0 0.67 0 0.34 0 0 Z " fill="#6EB863" transform="translate(584,368)"/>
<path d="M0 0 C-0.33 1.32 -0.66 2.64 -1 4 C-2.32 4 -3.64 4 -5 4 C-5 4.66 -5 5.32 -5 6 C-6.98 6.33 -8.96 6.66 -11 7 C-9.33784732 5.66104368 -7.67036393 4.32869858 -6 3 C-5.278125 2.4225 -4.55625 1.845 -3.8125 1.25 C-2 0 -2 0 0 0 Z " fill="#6CB361" transform="translate(376,364)"/>
<path d="M0 0 C5.41342681 1.14514798 7.9342948 2.34012809 11 7 C10.484375 6.71125 9.96875 6.4225 9.4375 6.125 C6.37643275 4.71219973 3.25055082 3.8751483 0 3 C0 2.01 0 1.02 0 0 Z " fill="#68AC5D" transform="translate(663,346)"/>
<path d="M0 0 C5.94 1.485 5.94 1.485 12 3 C12 3.33 12 3.66 12 4 C8.37 4 4.74 4 1 4 C0.67 2.68 0.34 1.36 0 0 Z " fill="#6BB260" transform="translate(594,318)"/>
<path d="M0 0 C1.29608947 0.93137592 2.58671632 1.8703566 3.875 2.8125 C4.59429687 3.33457031 5.31359375 3.85664062 6.0546875 4.39453125 C8 6 8 6 10 9 C6.41275276 7.66759388 3.08350711 6.29060528 0 4 C0 2.68 0 1.36 0 0 Z " fill="#68AE5E" transform="translate(380,723)"/>
<path d="M0 0 C0.33 0.99 0.66 1.98 1 3 C0.01 3 -0.98 3 -2 3 C-2.66 4.32 -3.32 5.64 -4 7 C-5.98 7 -7.96 7 -10 7 C-6.76478258 4.51137122 -3.40739705 2.24578442 0 0 Z " fill="#6BB360" transform="translate(406,343)"/>
<path d="M0 0 C0.33 0.99 0.66 1.98 1 3 C-0.98 3.33 -2.96 3.66 -5 4 C-5.33 4.99 -5.66 5.98 -6 7 C-7.65 7 -9.3 7 -11 7 C-7.53258866 4.04250209 -4.13126473 1.92151848 0 0 Z " fill="#6DB562" transform="translate(420,336)"/>
<path d="M0 0 C2.64 0 5.28 0 8 0 C8.66 1.32 9.32 2.64 10 4 C5.78087253 3.5205537 3.20336822 2.83374881 0 0 Z " fill="#6DB662" transform="translate(439,820)"/>
<path d="M0 0 C3.625 -0.1875 3.625 -0.1875 7 0 C6.67 0.99 6.34 1.98 6 3 C3.36 3 0.72 3 -2 3 C-1.34 2.01 -0.68 1.02 0 0 Z " fill="#6BB260" transform="translate(580,781)"/>
<path d="M0 0 C0.33 0.99 0.66 1.98 1 3 C0.01 3.33 -0.98 3.66 -2 4 C-2.99 5.485 -2.99 5.485 -4 7 C-6.625 7.1875 -6.625 7.1875 -9 7 C-6.3765992 4.08511023 -3.28183606 2.11496102 0 0 Z " fill="#6BB361" transform="translate(643,756)"/>
<path d="M0 0 C3.3 0 6.6 0 10 0 C7.09907498 1.93395001 6.10325263 2.30131941 2.8125 2.625 C1.554375 2.74875 0.29625 2.8725 -1 3 C-0.67 2.01 -0.34 1.02 0 0 Z " fill="#68AE5E" transform="translate(499,362)"/>
<path d="M0 0 C0.66 0 1.32 0 2 0 C3.4783226 2.95664519 3.06032783 5.74229737 3 9 C2.01 8.34 1.02 7.68 0 7 C-0.1875 3.375 -0.1875 3.375 0 0 Z " fill="#6AB260" transform="translate(277,634)"/>
<path d="M0 0 C3.39417765 3.12621626 5.6062718 5.56541027 7 10 C5.68 9.34 4.36 8.68 3 8 C3 6.68 3 5.36 3 4 C2.01 4 1.02 4 0 4 C0 2.68 0 1.36 0 0 Z " fill="#6BB260" transform="translate(751,427)"/>
<path d="M0 0 C2.6486859 3.19668988 4.93992341 6.39486597 7 10 C5.1875 9.8125 5.1875 9.8125 3 9 C0.46629412 5.65188866 0 4.29875783 0 0 Z " fill="#6BB260" transform="translate(737,407)"/>
<path d="M0 0 C0.99 0.33 1.98 0.66 3 1 C-2.14285714 6.57142857 -2.14285714 6.57142857 -6 7 C-6 6.01 -6 5.02 -6 4 C-4.02 3.67 -2.04 3.34 0 3 C0 2.01 0 1.02 0 0 Z " fill="#6CB461" transform="translate(701,775)"/>
<path d="M0 0 C0.33 0 0.66 0 1 0 C1.3125 2.8125 1.3125 2.8125 1 6 C-1.375 7.9375 -1.375 7.9375 -4 9 C-4.66 8.67 -5.32 8.34 -6 8 C-4.73046875 6.50260417 -3.4609375 5.00520833 -2.19140625 3.5078125 C-0.9121848 1.99405921 -0.9121848 1.99405921 0 0 Z " fill="#6CB461" transform="translate(714,686)"/>
<path d="M0 0 C1.5 1.125 1.5 1.125 3 3 C3.1875 6.1875 3.1875 6.1875 3 9 C2.01 8.67 1.02 8.34 0 8 C0 5.36 0 2.72 0 0 Z " fill="#6BB361" transform="translate(790,520)"/>
<path d="M0 0 C0.33 0 0.66 0 1 0 C1 2.64 1 5.28 1 8 C-0.98 8.99 -0.98 8.99 -3 10 C-2.05066101 6.64566891 -1.10251165 3.30753495 0 0 Z " fill="#6DB562" transform="translate(283,492)"/>
<path d="M0 0 C1.45922693 0.11409593 2.91740598 0.24165544 4.375 0.375 C5.59316406 0.47941406 5.59316406 0.47941406 6.8359375 0.5859375 C9 1 9 1 11 3 C9.54176788 3.0270043 8.08339325 3.04639787 6.625 3.0625 C5.81289063 3.07410156 5.00078125 3.08570313 4.1640625 3.09765625 C2 3 2 3 0 2 C0 1.34 0 0.68 0 0 Z " fill="#67AC5D" transform="translate(579,315)"/>
<path d="M0 0 C2.97 0.99 5.94 1.98 9 3 C9 3.33 9 3.66 9 4 C6.69 4 4.38 4 2 4 C1.34 2.68 0.68 1.36 0 0 Z " fill="#6BB260" transform="translate(448,770)"/>
<path d="M0 0 C0.99 0 1.98 0 3 0 C2.01 2.97 1.02 5.94 0 9 C-0.33 9 -0.66 9 -1 9 C-0.67 6.03 -0.34 3.06 0 0 Z " fill="#6CB361" transform="translate(335,489)"/>
<path d="M0 0 C5.46428571 0.60714286 5.46428571 0.60714286 7.875 2.375 C9 4 9 4 9 7 C7 7 7 7 4.5 4.625 C3.675 3.75875 2.85 2.8925 2 2 C1.34 1.34 0.68 0.68 0 0 Z " fill="#6CB461" transform="translate(669,411)"/>
<path d="M0 0 C3.3 0.99 6.6 1.98 10 3 C10 3.33 10 3.66 10 4 C7.36 4 4.72 4 2 4 C1.34 2.68 0.68 1.36 0 0 Z " fill="#6CB461" transform="translate(617,325)"/>
<path d="M0 0 C2.475 0.495 2.475 0.495 5 1 C5 1.66 5 2.32 5 3 C6.32 3.66 7.64 4.32 9 5 C8.67 5.66 8.34 6.32 8 7 C6.66382648 6.02471263 5.3311249 5.04466681 4 4.0625 C3.2575 3.51722656 2.515 2.97195313 1.75 2.41015625 C1.1725 1.94480469 0.595 1.47945312 0 1 C0 0.67 0 0.34 0 0 Z " fill="#69AF5E" transform="translate(381,789)"/>
<path d="M0 0 C0 3.61537605 -0.89229241 5.11165997 -3 8 C-3.99 8 -4.98 8 -6 8 C-4.55746343 4.63408134 -2.66735273 2.48952921 0 0 Z " fill="#6CB461" transform="translate(325,413)"/>
<path d="M0 0 C2.31 0 4.62 0 7 0 C5.8125 1.5 5.8125 1.5 4 3 C1.3125 3.1875 1.3125 3.1875 -1 3 C-0.67 2.01 -0.34 1.02 0 0 Z " fill="#69B05F" transform="translate(595,828)"/>
<path d="M0 0 C2.64 0 5.28 0 8 0 C8 0.99 8 1.98 8 3 C2.25 2.25 2.25 2.25 0 0 Z " fill="#6BB360" transform="translate(451,824)"/>
<path d="M0 0 C0 3.51716303 -0.82445585 4.37121748 -3 7 C-4.32 6.67 -5.64 6.34 -7 6 C-4.69 4.02 -2.38 2.04 0 0 Z " fill="#6AB05F" transform="translate(663,742)"/>
<path d="M0 0 C1.1725131 0.95117134 2.33787015 1.91117009 3.5 2.875 C4.47453125 3.67550781 4.47453125 3.67550781 5.46875 4.4921875 C5.9740625 4.98976563 6.479375 5.48734375 7 6 C7 6.66 7 7.32 7 8 C6.34 8 5.68 8 5 8 C5 7.34 5 6.68 5 6 C4.360625 5.7525 3.72125 5.505 3.0625 5.25 C1 4 1 4 0.37109375 1.921875 C0.24863281 1.28765625 0.12617188 0.6534375 0 0 Z " fill="#67AB5D" transform="translate(373,715)"/>
<path d="M0 0 C0.33 0.66 0.66 1.32 1 2 C-0.25 4.625 -0.25 4.625 -2 7 C-2.99 7 -3.98 7 -5 7 C-3.70700306 4.11562221 -2.34058637 2.12780579 0 0 Z " fill="#68AD5D" transform="translate(702,703)"/>
<path d="M0 0 C1.32 0.33 2.64 0.66 4 1 C4 3.64 4 6.28 4 9 C4.66 9.33 5.32 9.66 6 10 C5.01 10 4.02 10 3 10 C2.690625 8.906875 2.38125 7.81375 2.0625 6.6875 C1.41662103 4.44592006 0.7376883 2.2130649 0 0 Z " fill="#6FB864" transform="translate(736,512)"/>
<path d="M0 0 C0.66 0 1.32 0 2 0 C1.34 2.97 0.68 5.94 0 9 C-0.33 9 -0.66 9 -1 9 C-1.09765625 2.84765625 -1.09765625 2.84765625 -1 1 C-0.67 0.67 -0.34 0.34 0 0 Z " fill="#6AB05F" transform="translate(328,510)"/>
<path d="M0 0 C0.33 0 0.66 0 1 0 C3.14285714 7.42857143 3.14285714 7.42857143 4 11 C3.01 10.67 2.02 10.34 1 10 C-0.60725635 6.78548731 -0.05748185 3.56387464 0 0 Z " fill="#6BB260" transform="translate(779,480)"/>
<path d="M0 0 C1.3921875 0.0928125 1.3921875 0.0928125 2.8125 0.1875 C2.8125 0.8475 2.8125 1.5075 2.8125 2.1875 C-1.6425 2.6825 -1.6425 2.6825 -6.1875 3.1875 C-3.1875 0.1875 -3.1875 0.1875 0 0 Z " fill="#68AD5E" transform="translate(484.1875,314.8125)"/>
<path d="M0 0 C1.32 0 2.64 0 4 0 C4 0.66 4 1.32 4 2 C2.68 1.34 1.36 0.68 0 0 Z " fill="#6EB763" transform="translate(642,467)"/>
<path d="M0 0 C0.66 0 1.32 0 2 0 C1.67 0.66 1.34 1.32 1 2 C0.67 1.34 0.34 0.68 0 0 Z " fill="#77C66B" transform="translate(644,593)"/>
</svg>
